<svg id="Vrstva_1" data-name="Vrstva 1" xmlns="http://www.w3.org/2000/svg" width="479.79" height="243.84" viewBox="0 0 479.79 243.84"><g style="opacity:0.37"><rect x="42.33" y="42.33" width="395.13" height="140.26" style="fill:#f1b90e"/></g><g style="opacity:0.49"><path d="M200.33,108.65c.51-.19,1-.38,1.55-.55l-2-.09C200,108.23,200.16,108.44,200.33,108.65Zm-25.1,19c-4.1-1.82-8.22-3.58-12.3-5.36-8.33-3.72-17.06-7.5-24.91-12a37.59,37.59,0,0,0,6.61,5.84q-7.74-4.32-15.27-9c8.88,11.58,26.59,17,41.76,23,1.43.53,2.83,1.06,4.23,1.6-2.23-1.09-4.47-2.17-6.68-3.26-3.73-1.75-7.4-3.57-11-5.41,3.18,1.32,6.42,2.47,9.59,3.49,5.05,1.88,10,3.71,14.5,5.72q4.71,1.53,9.48,2.86l-3.83-1.77C183.4,131.39,179.33,129.51,175.23,127.7Zm13.8,9.53c-2.25-.94-4.51-1.84-6.78-2.72s-4.54-1.85-6.9-2.75c1.61.79,3.21,1.58,4.84,2.36C183.1,135.25,186.05,136.27,189,137.23Zm25.75-21.36c-3.48-2.16-7.9-3.49-12.09-4.81C206,113.77,210.25,115.16,214.78,115.87Zm-16.58-6.31c1.42.53,2.94,1,4.49,1.5a15.84,15.84,0,0,1-2.36-2.41C199.61,108.93,198.89,109.23,198.2,109.56ZM177,112.88a80,80,0,0,0,10.74,3.67q-4.28-2.2-8.37-4.67a89.78,89.78,0,0,1-9.24-6.85c-1.29.56-2.58,1.17-3.85,1.82A44.27,44.27,0,0,0,177,112.88Zm36.85,9.1c-4.79-1.74-9.78-3-14.7-4.34A104.6,104.6,0,0,0,233,127q3.58.33,7.18.38a71.16,71.16,0,0,0-8.39-1.81A138.83,138.83,0,0,1,213.83,122Zm41.92,3a6.25,6.25,0,0,1-.34.92l7.71-1.31a61,61,0,0,1-7.64-5.08A9,9,0,0,1,255.75,125Zm-72.47-24.23-2.27,0a36.66,36.66,0,0,0-12.64,2.78c.57.51,1.16,1,1.74,1.5a70.16,70.16,0,0,1,10.81-3.73C181.7,101.09,182.49,100.9,183.28,100.72Zm6.84,1.29a158.18,158.18,0,0,0-15.78,1.79,24,24,0,0,0,7.41,7.21c5.34,3.12,11.3,4.95,17.38,6.63q-4.2-2-8.21-4.18a121.84,121.84,0,0,1-12.23-7.84,55.07,55.07,0,0,1,21-3.75c3.64.38,7.27.74,11,.91,1,.16,2,.35,3,.55a68.21,68.21,0,0,0-16.86,1.88c7.29-.15,14.23-.32,21.57,1.85a33.73,33.73,0,0,0-16.52,1,129.5,129.5,0,0,1,15.72,1.42c9.21,2.16,16.45,5.47,15.68,7.11-5.31-.1-12.15.24-18.5-.76.2.12.41.23.6.36a77.06,77.06,0,0,0,14.14,2.27c1.47-.43,3.77,0,5.16-.63-2.9-5.21-8-8.6-13.83-10.24,3.55.82,7,1.75,10.07,2.73,4.39.42,7.46,2.4,10.48,4.54a19,19,0,0,0-5.59-5.78l2.09.68c5.22,1.19,9.42,3.73,13.37,6.56,1.42,1,2.81,2.08,4.21,3.12a13.73,13.73,0,0,0-1.84-3.42,37.67,37.67,0,0,0-9.63-7.25c4.85,1.61,9.6,3.37,14.65,5.55,1.12.47,2.22,1,3.3,1.46l-1.25-.69c-22.34-12.28-51.71-20.22-77.43-14.41,4.48,0,8.84.38,13.18.82C194.3,101.66,192.18,101.83,190.12,102Zm37.4,19.64a120.65,120.65,0,0,1-12.9-2.63c-4.23-1.57-9.34-2.49-14.21-3.89l-.35-.11.71.47c8.48,5.25,20.09,7.36,30.86,6.47l.78-.07A13.91,13.91,0,0,0,227.52,121.65Zm12.69,5.72c1.91.47,3.84.93,5.67,1.21,4.34.69,8.09.43,9.53-2.71L248,127.13Q244.13,127.43,240.21,127.37ZM155.76,98.86c-4.13.74-8.18,1.6-12.23,2.48a48.14,48.14,0,0,0,8.94,7.69,7.88,7.88,0,0,0,2.39,4,22.42,22.42,0,0,0,4.45,3.74c-9-4.52-17.33-9.87-26.22-14.73a4.24,4.24,0,0,1,1.68-4.28c3.75-.25,7.5-.73,11.26-1.28,6.57-1,13.16-2.1,19.73-2.41l.29-.06-7.42.56a100.37,100.37,0,0,0-16,1.59c-2.56.43-5.1.91-7.63,1.38a18.12,18.12,0,0,1,5.9-2.59c-1.4.06-2.81.11-4.21.15l-3.36.08.45-.17c2.23-.81,4.73-1.6,7.26-2.34h-4.49c-3.77.5-7.53,1.08-11.27,1.84-1.49.3-3,.64-4.47,1l-1.18,0c.06.07.12.13.17.2q-2.75.69-5.48,1.55c5,3.43,10,6.69,15,9.84a27.77,27.77,0,0,1-3-4.81,79.45,79.45,0,0,0,11.63,8,27.46,27.46,0,0,1-3.45-4.81c8.33,6.53,18.46,11.65,28.81,15.75,2.56,1,5.17,2,7.79,3a105.9,105.9,0,0,0,14.59,8.23A113,113,0,0,0,197,136.71c-1.94-.5-3.87-1-5.8-1.55,2.27,1.05,4.54,2.11,6.81,3.15l2.55,1.15h40.75c-4.26-.24-8.54-.46-12.84-.63a110.93,110.93,0,0,1-18-3.29,70.49,70.49,0,0,0-18.39-9c-6.62-2-13.85-3-20.46-4.76-1.93-.5-3.8-1.06-5.59-1.72l-1-.47a45,45,0,0,1-6.56-6.94,97.33,97.33,0,0,0,23,8.06c-8.45-3.34-16-6.21-21.76-12.32a3.73,3.73,0,0,1-.46-.71A102.79,102.79,0,0,0,173,115.24c6.31,2.49,12.79,4.87,19.38,7.09s13.29,4.3,20,6.16a120.14,120.14,0,0,0,13.8,3,764.44,764.44,0,0,0,77.29,5c-2.65-2.1-5.4-4.13-8.22-6.06s-5.72-3.79-8.68-5.56c-3.82-2.33-7.76-4.59-11.81-6.74s-8.22-4.18-12.47-6.08C237.53,101.66,208.92,94.84,182,97.6c13-.45,26.74-.9,39.87,2.87,5.12,1,10.29,2.21,15.37,3.66,8,1.75,14.15,5.82,22,7.82,3.47,1.53,6.89,3.16,10.33,4.88s6.9,3.51,10.45,5.37q5,2.76,9.82,5.86t9.28,6.6c-33.84-.25-69.63-.17-101.38-10.91a136.57,136.57,0,0,1-13.34-5.3c-8.3-3.7-17-7.19-25.47-11.93a5.41,5.41,0,0,1,.72-3.48,60.45,60.45,0,0,1,6.15-2.5,71.11,71.11,0,0,1,9.83-2.32c-3.17.32-6.33.73-9.46,1.24-1.39.3-2.88.59-4.38.88a12.87,12.87,0,0,1,3.22-2.2c.81-.32,1.63-.59,2.46-.85-1.1.09-2.19.2-3.28.32q3.73-1.24,7.5-2.15c-2.61.16-5.22.4-7.85.74S157.85,97.37,155.76,98.86Zm77.31-.67,1.79.47c-.25-.08-.5-.17-.76-.24Zm-41.83-5.51H172.49c-2.16.39-4.31.82-6.44,1.34l3.75-.28C177,93.6,184.12,93.06,191.24,92.68Zm5.35,46.78c-2.54-.7-5.06-1.43-7.56-2.23,1.71.71,3.4,1.46,5.09,2.23Zm107.64-13.38c-5.19-2.22-10.44-4.51-15.74-6.81-4.25-2-8.58-4.07-13-6.08a295.13,295.13,0,0,0-40.65-14.53c13,4.1,25.78,9.45,38.68,14.92,4.21,1.93,8.43,3.87,12.72,5.81s8.44,3.58,12.67,5.34c12.52,5.24,25.14,10.31,38.26,14.73h1.71L334.5,138C324.73,134.68,314.6,130.52,304.23,126.08Zm-32-10.11a109.09,109.09,0,0,0,10.65,4.52q6.83,2.94,13.59,6c9,4.09,17.82,8.37,26.61,13h3.08c-2.11-.83-4.25-1.72-6.36-2.63-6.61-3.43-13.35-6.85-20.21-10.17q-5.13-2.49-10.37-4.88-6.6-3.18-13.48-6.15c-4.58-2-9.24-3.85-14-5.6q-2.64-1-5.32-1.86c1.89.94,3.74,1.88,5.62,2.72C265.42,112.58,268.78,114.32,272.22,116ZM174.66,94.79c-1,.2-2,.43-3,.67,2.49-.16,5-.25,7.43-.29,15.21-2.4,29.39,3.29,44.4,1.1,3.17.55,6.37,1.2,9.56,1.92C214.22,93.37,194.42,91.23,174.66,94.79Zm-16.45-2.11h-5.43c-3.47.53-7.1,1.09-10.29,1.87-.53.13-1,.27-1.55.41a116.06,116.06,0,0,0,12.88-1.18C155.28,93.38,156.75,93,158.21,92.68ZM446.4,130.61c-40-11.7-82-22.23-122-34.82q-4.66-1.59-9.35-3.11h-3.49q6.93,2.32,13.8,4.8c39.7,13.08,81.89,22.64,122,33.92q6.56,1.53,13.13,2.95c9,1.93,18,3.66,27.13,5.11h7.86v-.68c-10.74-1.46-21.47-3.07-32.19-4.95Q454.85,132.36,446.4,130.61Zm-299.89-9.44c-13.11-6.7-26-13.94-39.12-20.55a36.28,36.28,0,0,0-7-2.89v1.1c20.71,7.81,38.81,19.91,57.24,30.77a90.41,90.41,0,0,0,8.12,4.44q-4.43-1.72-8.75-3.63c2.92,1.59,5.86,3.14,8.83,4.61,3.94,1.62,7.92,3.08,11.93,4.44h.46c-2.12-.86-4.24-1.75-6.34-2.7q4.41,1.43,8.85,2.7h3.88a143.19,143.19,0,0,1-24.85-11.81C155.28,125.58,150.89,123.4,146.51,121.17Zm-46.16-19.25v2.42c8.27,2.46,17,3.74,24.35,8.26a205.42,205.42,0,0,0,28.07,15.91q2.08,1,4.19,1.9c-1.26-.69-2.53-1.38-3.79-2.09C136.1,118.79,119.5,108.19,100.35,101.92ZM279,128.7q-5.15,1.26-10.35,2a112.52,112.52,0,0,0,14.94-1.1q-4.53-3.39-9.35-6.48l-2.06-1.31A33.84,33.84,0,0,1,279,128.7Zm-54.32-1c-3.82-.66-7.69-1.51-11.53-2.56-5.68-3.19-11.8-5-17.95-6.61-2.48-.66-5-1.29-7.43-2,2.23,1.15,4.48,2.25,6.78,3.28,21.78,9.78,46.37,14.19,70.24,11.41,1.29-.14,2.57-.32,3.86-.51C254.3,130.9,239.59,128.92,224.63,127.7Zm-32.91-21c-1.45.51-2.83,1.06-4.09,1.65,3.2,3.41,7.69,5.27,12.43,6.66A26.89,26.89,0,0,1,191.72,106.71Zm54.92,11.7a58.29,58.29,0,0,1-5.24-3.51,17.55,17.55,0,0,1,2,4.74C244.49,119.27,245.59,118.86,246.64,118.41Zm-3,2.21c-.06-.34-.16-.65-.24-1a50.48,50.48,0,0,1-11,2.25C238.1,123,244.06,125.78,243.61,120.62ZM182,97.6l-2.62.09c-1.26.15-2.51.33-3.75.53,1.31-.13,2.62-.24,3.93-.34Zm45.37,37.55c22.81.26,45.87,3,68.32,4.31h23.06c-3.82-.07-7.63-.17-11.44-.34-5.29-.23-10.56-.55-15.81-.88-28.78-2.14-58.7-3.37-86.38-10.06a31.31,31.31,0,0,1,6.3,3.75A114.09,114.09,0,0,0,227.36,135.15Zm-27.83-8.4q2.78.75,5.58,1.43a61.47,61.47,0,0,0-7.75-2.86c-5.17-1.58-10.6-2.81-15.59-4.56l-.24-.06c1.19.48,2.41,1,3.65,1.47C189.87,123.91,194.66,125.42,199.53,126.75ZM270,120.32a59.37,59.37,0,0,0-8.08-4.5c3.52,1.94,6.91,4,10.17,6C271.45,121.32,270.76,120.81,270,120.32Zm-13.6-12.15c-4.63-2.31-9.46-4.59-15.42-5.38a178.23,178.23,0,0,0-18.36-4.45c-13.91-.77-28.83-3.79-43.9-3a47.6,47.6,0,0,0-11.3,2c1.33-.11,2.67-.2,4-.25C200.43,94.56,229.68,99.12,256.44,108.17Zm-64.72-1.46c1.61-.56,3.32-1.07,5.11-1.5-2,0-3.92.07-5.93.05C191.15,105.76,191.43,106.24,191.72,106.71Zm-91.37,26.56q11.15,3,22.18,6.19h5.32c-9.06-2.61-18.2-5.05-27.5-7.21Zm0-8.63a59.69,59.69,0,0,1,10.53,3q15.16,6.45,30.64,11.77H143c-14.29-6.12-27.91-12.41-42.69-16.22Zm0,3.37v1.36c11,3.08,21.85,6.56,32.7,10.09h5.43c-7.83-2.7-15.71-5.44-23.74-8.16C109.86,129.9,105.11,128.9,100.35,128Zm0,9.84c2.33.52,4.65,1.06,7,1.61h8.78c-5.2-1.21-10.45-2.3-15.76-3.22Zm227-32.91c-5-1.67-9.87-3.41-14.73-5.13q-10.31-3.66-20.75-7.13h-1.72c2.67.91,5.32,1.83,8,2.76q7.94,2.81,15.81,5.7c42.42,12.55,83.77,27.5,127.1,38.32h3.6l-3-.65C403.16,130.64,366.28,114.94,327.31,104.94ZM159.15,138.58l2.15.88h.27l-2.74-1Zm-58.8-18.51v.59c17,5.61,33.75,12.5,50.7,18.8H154l-4.12-1.58C133.51,131.56,117.3,125.14,100.35,120.07Zm346.12,14.6c-39.41-9.43-77.09-22.2-116-34Q323,98,315.48,95.55c-3-1-6-1.93-9-2.87h-6.4q6.72,1.89,13.38,4,7.67,2.42,15.26,5.15c39.2,11.39,78,24.4,117.31,34.29q6.57,1.47,13.15,2.83l2.55.52H469c-3.12-.61-6.24-1.23-9.35-1.89Q453,136.19,446.47,134.67Zm-294.61-2.42c-14.87-6.68-29.7-13.69-45.59-18.67-1.91-.65-3.89-1.4-5.92-2.13v1.09c3.36.87,6.74,1.78,10.26,2.86,14.42,5.38,28.27,12.24,42.22,18.54,4.23,1.91,8.47,3.77,12.74,5.52h2.8l-1.58-.73C161.78,136.66,156.82,134.47,151.86,132.25Zm-51.51-17V117c3.41,1,6.8,2,10.19,3.08,16.14,5.73,31.59,12.12,47.06,17.91l1.23.45C145.62,133,132.45,127,118.57,121.71,112.73,119.53,106.62,117,100.35,115.23Zm206.43-13.74c-8.42-3-16.87-6-25.36-8.81h-.14c8,2.84,15.89,5.85,23.77,8.91,5.19,2,10.36,4,15.78,6,28.05,9,56.47,15.8,85,26.72,5.49,1.89,10.85,3.61,16.21,5.19h9.1c-36.26-10.87-71.79-22.24-108.19-32.29C317.37,105.34,312.08,103.4,306.78,101.49Zm103.77-8.81c27.9,7.35,56.46,13.25,84.93,17.87v-2.17c-25.64-4.54-51.52-9.55-76.94-15.7Zm22.56,0c20.7,4.84,41.56,9.17,62.37,12.74v-1.79c-18-3.22-36.12-6.92-54.13-10.95Zm22.61,0c13.15,2.94,26.39,5.67,39.76,8V98.58q-15.24-2.77-30.35-5.9ZM435.93,122.3c-32.2-7-63.53-16.44-95.18-25.68q-5.85-2-11.7-3.94h-5.78L327.93,94q7.38,2.08,14.81,4.09c35.4,8.92,70.78,21.23,105.79,29q6.57,1.48,13.16,2.84c11.19,2.29,22.46,4.27,33.79,5.83v-1.95c-15.55-2.37-31-5.29-46.43-8.61Q442.47,123.81,435.93,122.3Zm55.65-29.62h-8.12q6,1.16,12,2.26V93.43Zm-64.52,17.51c-22-4.89-42.32-12.18-64.13-17.51h-9.16c25.33,6.37,51.75,13.71,77.17,20q8.55,2,17.15,3.89,23.57,5.1,47.39,8.86v-1.68c-17.9-2.86-35.71-6.19-53.42-10.12Q434.55,112,427.06,110.19ZM398.78,92.68h-5.29L399,94.22a969.63,969.63,0,0,0,96.45,21.24v-1.41c-32.41-5.3-64.66-12.94-96.08-21.2ZM259.57,104.33c-5.78-2.21-11.73-4.24-17.78-6C247.53,100.27,253.63,102.18,259.57,104.33Zm153.36-2.81c-11.39-3-23.09-6.06-34.29-8.84h-5.71C391.56,97.11,409,103,427.84,107.31q7.49,1.78,15,3.44c17.45,3.82,35,7,52.63,9.79v-1.47c-22.72-3.62-45.33-8.43-67.62-13.83Q420.36,103.43,412.93,101.52Zm24.19,16.35c-30.64-8.22-62.5-15.69-92.62-24.68l-1.7-.51h-5.37q4.62,1.25,9.27,2.45c30.48,6.54,59,17.45,90,24.14q6.54,1.58,13.1,3c15.1,3.38,30.31,6.32,45.64,8.51v-1.66c-15.17-2.22-30.25-5.08-45.24-8.34Q443.67,119.39,437.12,117.87Zm-84,18.9.17,0-.19,0Zm-1.29-.31,1.27.31-4.35-1.28ZM237.4,92.68h-7.89a288.07,288.07,0,0,1,29.34,7.41q-7.1-2.84-14.21-5.58C242.22,93.85,239.8,93.25,237.4,92.68Zm78.21,31.91c-5.12-1.93-10.25-3.94-15.39-6-4.88-2.24-9.83-4.51-14.83-6.74s-10.07-4.41-15.21-6.47c-8.54-3-17.27-5.9-26.09-8.36,7.79,4.38,17.16,7.35,24.87,11.06-3-1.36-6.18-2.61-9.39-3.78q5.19,2,10.19,4.17l1.33.67c1.08.48,2.16.94,3.25,1.4,2.18,1,4.36,2,6.55,3,6.59,3.09,13.21,6.19,20,9.11,5,2.16,10,4.23,15.16,6.12s10.42,3.59,15.85,5c4.7,1.43,9.43,2.86,14.15,4.32,1.35.41,2.69.84,4,1.27h.44l-1.74-.53q-7.57-2.33-15.15-4.75c-9.73-3-19.45-6.66-29.21-10.58-4.88-1.95-9.76-4-14.66-6q-6.13-2.81-12.4-5.64l-2.29-1.07q2.85,1.22,5.73,2.36,9.76,3.9,19.8,7.1,7.4,2.6,14.85,5t14.93,4.8c2.25.6,4.5,1.22,6.73,1.85q-3.08-.93-6.14-1.91C325.85,128.38,320.73,126.52,315.61,124.59ZM337.1,132l4.9,1.48,6.71,2c-2.51-.8-5-1.57-7.56-2.31ZM235.36,96.54c2.15.56,4.3,1.15,6.43,1.77l-1.61-.55Q237.77,97.12,235.36,96.54ZM213,92.68a89.31,89.31,0,0,1,11.32,1.59c3.62.61,7.31,1.37,11,2.27a186.8,186.8,0,0,0-18.67-3.86Zm149,46.78h1.35q-5-1.49-10.1-2.65C356.25,137.55,359.16,138.45,362,139.46ZM227.29,92.68h-1.22c6,1.23,12.05,2.71,18,4.37q-.81-.45-1.59-.93C237.39,94.73,232.3,93.59,227.29,92.68Zm-63.38,44.24c1.93.88,3.88,1.72,5.84,2.54H172c-4.51-1.5-8.93-3.11-13.26-4.89C160.46,135.36,162.16,136.15,163.91,136.92Zm130.78-34.39c-8.92-3.55-17.94-6.87-27.08-9.85h-5.13c9.17,3,18.21,6.36,27.17,9.92,5.33,2.13,10.62,4.32,15.93,6.54,29.78,9.42,58.94,20.5,88.56,30.32h3.66c-29.28-9.76-58.09-20.75-87.53-30.57C305.05,106.74,299.89,104.6,294.69,102.53Zm6.24.72c-9.75-3.72-19.58-7.31-29.5-10.57H269.7c10.87,3.73,21.61,7.89,32.3,12.11,5.4,2.13,10.84,4.26,16.63,6.23,31.29,9.52,60.84,17.49,91.09,28.44h2.95c-31.92-9.83-63.83-20.86-95.42-30.09C311.64,107.38,306.29,105.3,300.93,103.25ZM144.13,127.6a144.83,144.83,0,0,0,13.7,6.6l.91.37q-5.28-2.43-10.45-4.93ZM100.35,107v.62c15.21,5.66,29.27,12.85,43.78,20a129.87,129.87,0,0,1-12.86-8C122,113.1,111.3,110,100.35,107Zm186.41-2.65c-10.33-4.27-20.75-8.28-31.36-11.68h-5.67c11.41,3.47,22.64,7.54,33.71,11.95,5.45,2.16,10.85,4.41,16.26,6.68,28,10.69,56.27,18.23,84.82,28.15h3.28c-28-9.71-55.84-18.8-84.62-28.15C297.67,109,292.23,106.63,286.76,104.36ZM336.14,129l-1.59-.39,7.75,2.49c3.57,1.05,7.13,2.18,10.66,3.36q6.77,2.4,13.55,5h1.57c-6.92-2.39-13.92-4.64-20.85-7Q341.62,130.75,336.14,129Zm-22.72-7.79q-8-2.94-16-6c-5.13-2.41-10.31-4.73-15.56-6.92-7.45-3-15.15-5.76-23-8.21,5.16,2.07,10.32,4.19,15.51,6.44q4.9,2.28,9.91,4.55c6.68,3,13.52,5.89,20.62,8.51,5.08,1.82,10.21,3.54,15.41,5.12q7,2.13,14.25,3.86l-5.13-1.65C324.07,125.06,318.75,123.13,313.42,121.17Zm-41-19q-3.37-1.25-6.78-2.44,4.29,1.66,8.55,3.43c5.39,2.23,10.75,4.58,16.07,7,8.53,3.48,15.75,8,24.67,10.86,19.6,5.16,38.08,11.47,56.75,18.4H375c-28.75-10.39-57.21-21.39-86.23-30.91Q280.64,105.27,272.44,102.22Zm-29.06-9.54q11.28,3.21,22.28,7.1c-6.78-2.62-13.64-5-20.58-7.1Z" transform="translate(-58.03 -50.35)" style="fill:#f1b90e"/></g><g style="opacity:0.49"><path d="M324.59,194.5c-3.51-.86-7.06-1.61-10.71-2.13q-6.88-1.41-13.74-3t-13.69-3.25H283.2c4.66,1.26,9.34,2.5,14.09,3.68q5.25,1.31,10.55,2.51c4.5,1.11,9.05,2.15,13.67,3.09s9.27,1.78,14,2.5c1.75.26,3.5.49,5.25.71-1.93-.5-3.83-1-5.74-1.43C331.55,196.32,328.1,195.36,324.59,194.5Zm83.92-2.45a120,120,0,0,1-12.08,1.66c1.91-.5,3.78-1,5.6-1.58a138.91,138.91,0,0,0,13.78-4.48,22,22,0,0,0-1.74-1.48H410c.5.21,1,.41,1.49.63a48.24,48.24,0,0,1-18,7.2c-3.36.33-6.73.66-10.1,1.18-.95,0-1.91.06-2.86,0a60.82,60.82,0,0,0,14.73-4.75c-6.54,1.45-12.75,2.87-19.9,2.26a30.34,30.34,0,0,0,14.63-4,123,123,0,0,1-14.51,1.58c-8.84-.27-16.18-1.93-15.89-3.55,1-.19,2.16-.42,3.3-.65h-4.64A22.52,22.52,0,0,0,373,192.66c-3.41-.09-6.72-.3-9.76-.63-4.06.43-7.31-.8-10.56-2.18A19.35,19.35,0,0,0,359.1,194l-2.06-.22c-5-.12-9.41-1.65-13.66-3.48-1.54-.67-3.05-1.37-4.57-2.05a14.25,14.25,0,0,0,2.5,2.75,38.08,38.08,0,0,0,10.47,4.78c-4.77-.56-9.48-1.29-14.58-2.33q-1.68-.33-3.33-.72c.44.13.86.27,1.3.39C358.33,200.16,386.76,202,408.51,192.05Zm12.75-5.25c-.39-.22-.8-.42-1.19-.63h-1.33a60,60,0,0,1-8.24,4.93c-.66.33-1.32.64-2,1,.68-.14,1.36-.28,2-.44A32,32,0,0,0,421.26,186.8ZM391.19,188c-.42.27-.84.54-1.27.79l1.87-.29C391.59,188.32,391.39,188.17,391.19,188Zm-50.46,10.66c4.75,1.24,9.66,2.42,15.23,2.05a174.86,174.86,0,0,0,17.64.66c12.73-1.84,26.92-1.84,40.31-5.28a42.08,42.08,0,0,0,9.7-3.83q-1.75.51-3.57,1C394.58,200.73,367.08,201.94,340.73,198.66Zm56.35-12.49a25.12,25.12,0,0,1,2.34,2,35.16,35.16,0,0,0,3-2Zm2.34,2a46.59,46.59,0,0,1-4.23,2.29c1.75-.39,3.51-.78,5.33-1.14C400.17,189,399.8,188.56,399.42,188.19ZM364.26,203.4l-1.73-.1.74.08ZM210,186.17c12.15,2.14,24.3,4.05,36.41,4.31-8.87-.37-17.28-2.19-25.53-4.31Zm99.08,8.33c4.33,1.05,8.74,2.1,13.2,3.11a288.11,288.11,0,0,0,40.22,5.69C349.81,202,337,199.48,324,196.9c-4.27-1-8.55-2-12.9-2.92s-8.49-1.69-12.74-2.51c-10.14-2-20.31-3.82-30.65-5.3h-3.37c9.24,1.22,18.94,3,28.92,5.05C298.47,192.28,303.77,193.39,309.11,194.5Zm101.33.12,2.34-.56c1.1-.36,2.18-.75,3.25-1.16-1.15.36-2.3.7-3.46,1Q411.52,194.29,410.44,194.62Zm7.3,1.21c.85-.37,1.69-.76,2.52-1.15q-3.3.88-6.63,1.61c-13.11,4.94-27.3,2.39-40.28,7.1-3,.08-6,.08-9.09,0C382.44,204.31,400.81,202.63,417.74,195.83ZM373.8,199.3c-4.85,0-9.82-.12-14.75-.5-7.65-.12-14.19-2.67-21.76-3-3.51-.75-7-1.6-10.52-2.52s-7.08-1.9-10.74-2.94q-5.22-1.56-10.3-3.49l-1.65-.64h-2.53q3.92,1.56,7.92,2.93,6,2.11,12.31,3.92c4.18,1.2,8.43,2.28,12.74,3.21,24.86,4.85,52.33,5.79,75.92-1.61C398.86,197.4,386.56,200.31,373.8,199.3Zm60-10.59c2.05-.82,4.06-1.67,6.06-2.54H428.55a48.74,48.74,0,0,1-4.23,2.86A59.9,59.9,0,0,1,416,192.9c2.78-.86,5.52-1.8,8.22-2.84l3.73-1.59a10.92,10.92,0,0,1-2.35,2.58c-.66.43-1.33.83-2,1.21,1-.28,1.93-.58,2.88-.88q-3,1.8-6.23,3.3,3.47-.93,6.9-2.09C429.45,191.69,432.26,190.44,433.77,188.71Zm-84.46-2.54c-.79.47-1.55,1-2.27,1.48,2,.61,3.77,1.43,5.59,2.2a17.82,17.82,0,0,1-2.81-3.68Zm68.59,46.52-3,.25H435.1c19.75-.65,39.52-.85,59.29-.85C469.15,228.6,443.48,230.56,417.9,232.69Zm4.31-9.14-14.39,1.67c-41.93,7-85,2.45-128-.77-4.77-.36-9.55-.7-14.35-1-34.1-1.6-69-6.24-102.5-6.89-4.19-.09-8.38-.15-12.56-.15a450.56,450.56,0,0,0-50,2.42v1.4c20.71-1.67,41.62-2.13,62.56-1.87,4.18,0,8.37.13,12.54.25,30.75.45,61.32,3.24,92.12,5.81q8.36,1.08,16.71,2c39,4.33,78.18,5.74,117.55,0l15.45-1.34c25.66-2.24,51.16-4.85,77.08-6C469.83,218.49,446.13,220.82,422.21,223.55Zm72.18-12.84c-22.43-2.61-43,3.71-65.14,8.34q18.94-2.36,37.85-6.48C475.84,210.71,485.66,212.57,494.39,210.71Zm-322.3,19.58c-23.94-.38-47.77.35-71.54,2l0,.68h10.6c25.1-1.5,50.55-1.37,75.79-.42,3.23.12,6.44.28,9.65.42H223.3c-12.21-.86-24.3-2-36.83-2.29Q179.27,230.41,172.09,230.29Zm86.28.13c-24.85-1.12-51-3-76-4.08q-8.21-.27-16.42-.38c-21.88-.3-43.68.25-65.45,1.81l0,1.42c23.81-1.47,47.65-2.13,71.59-1.68q7.18.13,14.38.41c24.14.45,47.06,4.17,71.44,4.32l13.17.4,8.18.3h7q-6.7-.66-13.42-1.51C268,231.08,263.2,230.75,258.37,230.42Zm154.82,0c-5.41.39-10.83.77-16.3,1.18q-6,.75-12.09,1.34h8.88c1.57-.2,3.13-.41,4.7-.64l16.06-1.1c26.74-1.81,53.35-3.41,79.95-2.83C467.1,226.63,440.24,228.51,413.19,230.42Zm2.28-3.59c-5.23.59-10.45,1.2-15.71,1.81-39.45,6.27-79.48,2.07-119.83-.72-5.76-.39-11.54-.76-17.32-1.07-29.09-.34-57.47-5-87.11-5.36q-6.28-.23-12.56-.36a499.45,499.45,0,0,0-62.54,2.17l0,1.41A566.16,566.16,0,0,1,163,222.55q6.27.09,12.55.28c29.64,1.82,60.2,2.75,89.56,5.37q8,.74,16.05,1.43c21.07,1.82,42.31,3.3,63.46,3.31h.22a345.18,345.18,0,0,0,49-3.19c5.64-.49,11.22-.9,16.79-1.31,27.87-2.05,55.84-4.37,83.81-3.79C467.79,221.17,441.61,223.85,415.47,226.83Zm-81.68-40.66c1.69.64,3.36,1.36,5,2.12a10.09,10.09,0,0,1-1.08-2.12ZM424.54,220c1.58-.3,3.15-.62,4.71-.95-1.71.21-3.42.42-5.13.61q-7.17.79-14.33,1.35l-1.23.15,3.51-.06A110.55,110.55,0,0,0,424.54,220ZM323.22,189.2a37.44,37.44,0,0,1-5.3-3h-2.48c1.85.77,3.71,1.52,5.6,2.22C321.76,188.67,322.49,188.93,323.22,189.2Zm64.35-3,.9.09-.21-.09Zm.9.09a16.46,16.46,0,0,1,2.72,1.74c.58-.38,1.15-.78,1.69-1.2C391.47,186.58,390,186.42,388.47,186.26Zm-238.1,22.9q6.28.06,12.55.23c37.85,1.32,75,6,113,9.49q7.35,1,14.73,1.91c38.94,4.56,78.6,5.34,117.92.37-6.5.11-13,.25-19.51.38,6.73-.57,13.47-1.41,20.21-2.57,5.78-.73,11.55-1.61,17.32-2.57,23.06-3.83,46-8.94,68.9-10.34-22.51.58-44.17,4.79-66,8.78q-6.56,1.2-13.16,2.33A199.87,199.87,0,0,1,389,221.54c-13.35.28-26.72.54-40.11.51-14.19-.77-28.38-2.4-42.5-4.34-5.23-.71-10.45-1.47-15.66-2.25-44.07-3.82-87.73-10.33-132.33-11.7q-7.28-.09-14.54,0c-14.52.08-29,.62-43.41,1.88l0,1.38c16.36-1.39,32.88-2.12,49.44-2.27,5.52,0,11,0,16.51.06,36.62.37,73.73,7.81,111.32,9.72,4.93.59,9.73,1.28,14.54,1.94,17.94,2.49,36.07,4.68,54.29,5.63-18.11-.09-36.23-.73-54.34-2.63-5-.53-10-1.15-15-1.87-38.14-3.12-76.35-7.77-114.19-9.53q-6.27-.14-12.55-.16a490,490,0,0,0-50,2.12v1.39A434.34,434.34,0,0,1,150.37,209.16Zm183.5-16.39c-3.65-1.11-7.21-2.31-10.65-3.57.74.35,1.49.68,2.26,1A59.71,59.71,0,0,0,333.87,192.77Zm-83-1.92c2.46.25,4.92.49,7.38.69l3.94.31-4.78-.44Zm-4.39-.37h0Zm244,3.1c1.69-.16,3.39-.32,5.08-.53C493.78,193.19,492.08,193.38,490.4,193.58Zm-53.24,12.27c-1.41.39-2.83.79-4.26,1.17-3.5,1-7,1.89-10.63,2.79l.91-.19A133.75,133.75,0,0,0,437.16,205.85Zm32.13-.72a247.88,247.88,0,0,1,26.19-1.86c-10.91-2.79-22.92,0-33.83,1.86-13.81,2.42-27.16,5.74-40.41,8.49l1.21-.2C437.82,210.8,453.32,207.57,469.29,205.13Zm-312-9c42.43,2.54,86.08,9,128.38,12.56,5.54.78,10.87,1.68,16.21,2.55,37.35,6.07,75.1,10.12,111.79,2.33,4.7-.94,9.4-2,14.11-3.16,14.13-3.44,28.3-7.44,42.63-9.89,8.73-.93,16.37-.93,25.1-1.85-6.54-1.86-14.18,0-20.74.92-15.55,1.75-30.64,5.71-45.69,9.34-5,1.21-10,2.38-15.06,3.42-37.7,9.94-75.75,4.27-113.48-2.3-5.4-.94-10.82-1.87-16.53-2.59-34.09-3.22-65.74-5.08-99.58-10.65a95,95,0,0,0-27.14-2c-4.68,0-9.4,0-14.11.06-14.15.21-28.33.84-42.59,2l0,1.37c14.27-1.32,28.46-2,42.61-2.12Q150.22,196,157.26,196.09Zm250.28,20.17c4.48-.79,8.93-1.65,13.38-2.57l.32-.07c-4.71.8-9.42,1.55-14.17,2.25-27.77,5.64-55.54,4.63-83.33,1.5C351.66,221.21,379.69,222.77,407.54,216.26Zm43.19-15.78a125.35,125.35,0,0,1-13.57,5.37c17.71-4.94,34.85-10.11,53.24-12.27C476.82,194.79,463.35,194.7,450.73,200.48Zm7.64-5.57c12-4.65,25.11-.93,37.11-6.51-23.65,0-45,9-66.65,16.35-1.31.45-2.62.88-3.93,1.31,1.42-.33,2.84-.68,4.25-1A193.22,193.22,0,0,0,458.37,194.91Zm-300,5.87c41.33,3.42,81.71,8.07,122.71,10.89,5.45.64,10.7,1.42,15.94,2.18,8.91,1.3,17.82,2.52,26.73,3.52-8.41-1.16-16.81-2.51-25.19-3.93-5.17-.86-10.34-1.75-15.69-2.49-27.51-3-54.8-4-83.17-8.61a324.54,324.54,0,0,0-41.33-2.87q-7.25-.14-14.51-.13c-14.52,0-29,.53-43.37,1.86l0,1.38a426.67,426.67,0,0,1,43.39-2C148.68,200.6,153.53,200.67,158.36,200.78ZM144.23,188c9.61.4,18.34-.53,28.17.4,42.57,6.51,82.95,11.15,125.44,15.94,5.54,1.11,11,2.23,16.51,3.27,28.79,5.48,57.72,9,87.06,3.57-28,3.42-56.27.51-84.14-4.41q-8.16-1.44-16.3-3.06c-36.89-6-72.91-6.94-111.11-14.38-15.28-2.79-30.56-2.79-45.62-2.83q-7.23,0-14.47.22c-9.65.25-19.31.7-29,1.42l0,1.36q14.55-.92,29-1.26Q137,188.06,144.23,188ZM148,213.2c5.33-.13,10.66-.2,16-.17,39,3.26,79.35,5.11,118.55,9.17q8.26,1.05,16.56,1.89c33.17,3.35,66.63,4,99.79.54,5.44-.45,10.78-.92,16.11-1.45,26.61-2.67,52.79-7.24,79.39-7.82-10.91,0-20.74-.93-31.65,0-11.28,1.55-22.32,3.2-33.26,4.68q-8.21,1.13-16.37,2.07c-38.88,6.49-78.1,5.41-117.19.68q-7.34-.89-14.66-1.94c-39-4.56-79.39-5.49-118.33-8.35q-6.28-.19-12.56-.27a403.16,403.16,0,0,0-50,2.17v1.4C116.18,214.65,132,213.61,148,213.2Zm276.93-7.14q-4.29,1-8.62,1.81a80.67,80.67,0,0,0,8.26-2.74c19.27-7,38.54-15.37,59.1-19H478.2c-.42.12-.86.23-1.27.37C463.5,190.45,450.08,195,436.6,199c-4.49,1.33-9,2.6-13.5,3.76A136.49,136.49,0,0,1,382,211.16a245.46,245.46,0,0,0,27.92-1.81q-4.28,1.05-8.52,1.83,7.2-.87,14.4-2.33C418.85,208,421.88,207,424.9,206.06ZM382,211.16a329.19,329.19,0,0,1-47.52-3.26C350.33,210.54,366.22,212,382,211.16ZM309.73,203c-8.54-1.58-16.18-4.36-24.91-5.29C255,196,227,191.22,196.63,186.17H179.38c44.32,4.39,88.08,12.93,132.17,18q8.1,1.49,16.23,2.74c2.24.34,4.47.65,6.71,1q-4.28-.72-8.55-1.53C320.53,205.34,315.13,204.19,309.73,203ZM156.32,191.9c45.55,2.08,90.3,10.44,135.72,15.91,5.24,1,10.42,2,15.62,2.9C344,217.12,381,219.94,417,211.1c1.77-.41,3.5-.86,5.24-1.29-4.37.9-8.77,1.61-13.23,2.19-32.62,6.48-64.92,3.38-96.86-2.27-5.32-.95-10.64-2-16-3-50.68-5.33-100.89-15.55-152-15.65q-7.25.1-14.49.3-14.49.39-29.06,1.1l0,1.37c13.9-1.13,27.83-1.72,41.77-1.91Q149.38,191.86,156.32,191.9Zm269.38,3-3.31.94c-16.41,3.64-31.69,9.58-49.28,9.45-3.42.11-6.93.09-10.5,0C384.71,206.48,407,203.91,425.7,195ZM362.61,205.3q-3.12-.17-6.24-.42l1.59.2C359.52,205.18,361.07,205.25,362.61,205.3Zm-23.75-2.61c-3.44-.57-6.86-1.2-10.21-1.9-.46-.12-.92-.24-1.36-.37-1.09-.23-2.19-.44-3.28-.66l-6.65-1.55c-6.71-1.58-13.44-3.18-20.27-4.57-5-1-10.06-2-15.16-2.75s-10.28-1.35-15.53-1.65c-4.59-.44-9.2-.86-13.82-1.31s-9.25-1-13.88-1.55l-1.61-.21h-4.44l2.51.22q7.38.66,14.77,1.36t14.82,1.52c9.51.93,19.18,2.47,28.94,4.22,4.88.87,9.78,1.8,14.7,2.75,4.15.94,8.34,1.9,12.57,2.83l2.33.54c-1.92-.37-3.83-.74-5.75-1.08-6.51-1.16-13.06-2.09-19.6-2.79q-7.31-1-14.63-1.84t-14.64-1.61q-3.27-.19-6.52-.44,3,.27,6,.6c5,.64,10.1,1.38,15.19,2.19s10.22,1.68,15.35,2.57c4.95,1.14,10,2.28,15,3.38s10.16,2.14,15.3,3.06c8.45,1.19,17,2.17,25.58,2.78-8.1-2.53-17.27-3.49-25.14-5.44C332.53,201.67,335.68,202.22,338.86,202.69Zm107.38-13.94c2.16-.83,4.28-1.71,6.4-2.58h-.71c-3,.85-5.89,1.85-8.8,2.91a179.64,179.64,0,0,1-17.19,5.76l-.24.11,6.54-1.85A89.66,89.66,0,0,0,446.24,188.75ZM338.86,202.69c5.76.94,11.62,1.69,17.51,2.19C350.71,204.16,344.74,203.55,338.86,202.69Zm-75.09-8.25,1.53.06-7.59-.83c-3.49-.3-7-.67-10.44-1.09-12.37-1.73-25-4-37.62-6.41h-3.78c15.29,3.65,31.26,5.18,47,7.1C256.56,193.64,260.18,194,263.77,194.44Zm-17.17-4,4.23.37-3-.32Zm195,4.8,4.3-2.25c-4.16,1.34-8.35,2.63-12.54,4q-4.92,1.47-9.93,2.74-6.3,1.54-12.64,2.95c3.4-.87,6.75-1.88,10-3.07q2.25-.75,4.49-1.61c-14.46,3.54-28.91,7.63-44,8.85a159.76,159.76,0,0,0,18.16-1.82c-3.2.62-6.42,1.19-9.68,1.73A227.49,227.49,0,0,0,429,200,95.67,95.67,0,0,0,441.56,195.28ZM373,209.14c5.73-.64,11.31-1.44,16.8-2.34a268.48,268.48,0,0,1-49.2-.42c4.74.84,9.46,1.65,14.19,2.44A174.59,174.59,0,0,0,373,209.14Zm-18.34-2.71c.56.18,1.12.36,1.66.55,5.72.37,11.34.47,16.77.29,2.77,0,5.51-.16,8.23-.38A228.74,228.74,0,0,1,354.61,206.43Zm-68.44-9.11c5.28.8,10.57,1.63,15.86,2.45q7.83,1.88,15.73,3.4c7.47,1.37,15.09,2.44,22.79,3.21-5.15-.93-10.33-1.9-15.56-3-3.32-.77-6.68-1.54-10.05-2.29-6.76-1.49-13.64-2.85-20.69-3.92-5-.71-10.07-1.33-15.15-1.8q-6.86-.64-13.8-.89l5,.55C275.61,195.75,280.88,196.52,286.17,197.32ZM454.86,188l-.36.23c-2.58,1.62-5.67,3.29-8.64,4.85,5.56-1.78,11.06-3.65,16.42-5.95.67-.29,1.33-.6,2-.91H452.72a15.56,15.56,0,0,1-4.63,3.36c1.25-.31,2.5-.61,3.76-.9Zm-8.07,2.23c.45-.21.88-.43,1.3-.65a102.28,102.28,0,0,0-11.31,3.41,116.55,116.55,0,0,1-11.5,5.1q2.43-.6,4.85-1.16C434.43,194.81,441.49,192.71,446.79,190.18Z" transform="translate(-58.03 -50.35)" style="fill:#f1b90e"/></g><g style="opacity:0.49"><path d="M100.36,172.58a134.29,134.29,0,0,0,27,13.62h2.53a133.64,133.64,0,0,1-29.5-14.82Zm32.18-33.15q-16.21,3.84-32.18,9.18v1.13a363.26,363.26,0,0,1,36.43-10.31Zm-20.68,15.19c-4,.87-7,1.6-7.3,2.07-.14.21.37.63,1.41,1.24a1.38,1.38,0,0,1,.16-.47C106.6,156.69,108.62,155.72,111.86,154.62Zm39-9.06c-17,3.14-31.39,6.46-39,9.06,6.56-1.42,16-3.18,22-4.79Q142.32,147.55,150.88,145.56Zm-4.9-6.13a359.38,359.38,0,0,0-45.62,12.7v1.06a358.43,358.43,0,0,1,49.84-13.76Zm-26.86,0q-9.42,2.48-18.76,5.45v1.2q11.46-3.72,23-6.65Zm40.38,0a356,356,0,0,0-59.14,16v1a355.14,355.14,0,0,1,63.41-17Zm23.15,0c-10.65,1.62-21.25,3.69-31.77,6.13,12.2-2.26,25.73-4.41,39-6.13Zm-77,0q-2.62.75-5.25,1.54v1.25c3.18-1,6.37-1.9,9.56-2.79Zm122.71,31.26c12-.38,37.5-5.27,37.43-8.1-.06-2.23-26.52-7.32-37.75-6.81-11.07.51-32.42,4.89-32.43,9.5C195.57,169,219.49,171.08,228.32,170.69Zm-.3-14.2c9.34,0,33.18,2.91,33.26,6.19.07,3-23.61,7-33,7.31-9.91.37-29.13-1.88-29.57-4.94C198.32,162.19,217.75,156.67,228,156.49Zm177.47,2.33c.08-1.17-43.18-8.23-59.45-10.12-32.53-3.77-66.62-8.36-99.12-9.27H225a352.83,352.83,0,0,0-80.39,12.71c-7.78,2.15-22.58,5.92-23.39,9.81-.21,1,.32,2.07,1.37,3.18-3.15-1.2-6-2.33-8.39-3.36a2.07,2.07,0,0,1-.16-1.5c1-3.08,16.67-6.62,24.6-8.77a401.19,401.19,0,0,1,66.26-12.07h-7.3a420.39,420.39,0,0,0-60.73,11.93c-8,2.17-23.66,5.36-24.84,8.32a1.72,1.72,0,0,0,0,1.18,65.48,65.48,0,0,1-6.07-2.93c-.3,1.86,3.63,4.47,10.35,7.41,6.49,4.81,18.65,10.62,25.8,13.2a166,166,0,0,0,29.46,7.66h4.26a164.07,164.07,0,0,1-36.71-9.38c-5.85-2.26-14.75-6.49-20.26-10.4,3.7,1.52,8,3.09,12.88,4.69a134.6,134.6,0,0,0,15,6.15,174.56,174.56,0,0,0,45.58,8.94H208c-6,0-11.83-.24-17.66-.7-6-1.28-12.17-2.78-18.25-4.39,18.79,3.69,37.48,3.68,57.65,2.95,32.07-1.22,64.14-6.23,95.53-11.21,16.83-2.67,58.16-8.94,58.63-13.27.32-2.91-42.8-8.93-56-10.43-32.44-3.7-66.77-8.15-98.49-7.53-20.43.41-95.87,8.32-97.56,22-.32,2.64,3.77,5.37,9,7.77-4.24-2.16-6.63-4.64-6.29-7.46,1.57-13.29,73.53-20.7,94.89-21.74,33.45.21,67.37,3.87,100.38,7.85,12.43,1.5,49.22,6.55,48.92,9.72s-36.26,9.75-51.5,12.23c-32,5.19-64.86,10.24-97.48,11.54-13.87.56-51.55-1.58-75.15-7.42-3.78-1.16-7.47-2.34-11-3.51-.94-.39-1.86-.79-2.75-1.21.68.35,1.41.69,2.18,1-6.23-2.07-12-4.11-17.11-6-1.6-1.38-2.48-2.74-2.27-4,.73-4.23,17.71-8.66,26.59-11a383.49,383.49,0,0,1,79.53-11.59c37.52.34,75.39,4.71,112.44,9,15.81,1.82,58.91,7.55,58.72,10.2-.14,1.79-43,10.36-62.21,13.5-35.68,5.84-72.27,11.8-108.72,13.27-5.91.24-11.66.4-17.31.44h18.58c37.32-1.55,74.66-7.79,111.11-13.82C361.94,169.13,405.29,161.81,405.49,158.82Zm-217.3,26.5a166,166,0,0,1-34.27-6.53c-4.3-1.32-10.2-3.32-15.65-5.61A463.8,463.8,0,0,0,188.19,185.32Zm40.44-11.72c16.42-.52,58.74-6.84,58.7-11.48,0-3.92-43.8-10-59.09-9.41-12.38.43-47.22,6.44-46.1,13.28C183.2,172.43,215.32,174.1,228.63,173.6Zm-.38-20.21c15.79,0,53.95,5,54,8.83.05,3.12-37.84,10.37-53.64,10.7-13.41.28-42-1.08-43.34-7.07C184,160.27,216.33,153.64,228.25,153.39ZM228,167.71c9.75-.27,19.26-2.36,19.21-4.72s-8.86-4.32-19.42-4.06-19.14,3-18.79,5.43S218.24,168,228,167.71Zm-.19-8.07c8.79-.22,15.71,1.42,15.75,3.41s-7.36,3.73-15.58,4-15.6-.84-15.87-2.87S219,159.85,227.8,159.64Zm1.12,16.78c20.83-.65,81.89-8.31,82-14.84.1-5.55-63.77-12.45-82.44-11.86-14,.45-61,7.4-59.57,16.39C170.35,175.36,212.41,177.05,228.92,176.42Zm-.41-26c18.13,0,77.07,5.26,77,11.31-.08,5.81-57.4,13.43-76.58,14.07-15.47.52-55.48-.73-56.92-9.62C170.6,157.55,214.52,151.26,228.51,150.38Zm.93,31.29c26.44-.93,53-4.71,78.89-8.8,15.16-2.39,51.55-8.42,51.87-12.57.24-3.1-37.34-8.7-50.3-10.2-26.62-3.09-54.81-6.57-80.84-5.95-15.76.38-86.38,8-85.53,20.62C144.54,179.81,208.85,182.47,229.44,181.67Zm-.38-36.93c27.56.07,55.45,2.94,82.62,6.3,12.07,1.49,43.23,6.24,43,9.41-.19,3-31,9.23-44.58,11.49-26.39,4.38-53.74,8.17-80.69,9.14-20.06.72-83.12-2.75-83-16.1C146.47,153.15,210.16,145.68,229.06,144.74Zm.13,34.37c22.79-.74,45.77-3.78,68-7.57,10.86-1.85,38.55-7.25,38.35-10.57-.18-3-25.83-7.41-37.49-8.89-22.76-2.91-47-5.82-69.29-5.22-14,.37-74.46,7.68-72.76,18.71C158,178.4,210.26,179.78,229.19,179.11Zm-.42-31.62c19.85,0,39.82,1.9,59.41,4.19,10.8,1.27,42,5.54,41.8,9.42s-30.31,9.31-42.31,11.22c-19.21,3.05-39,5.63-58.49,6.17-19,.52-67.74-.43-70.17-12.78C157,155.34,214.88,148.22,228.77,147.49Zm72.5,38.71h5.3c63.86-8.12,123.56-28.39,188.91-29.8v-1.28c-65.61,1.48-125.23,22.4-189.35,30.48Zm74.58,0c39.5-6.26,78.95-12.43,119.63-13v-1.35c-43,.63-84.54,7.62-126.25,14.36Zm-19.9,0c46.16-7.64,91.89-16.55,139.53-17.29v-1.34c-49.65.8-97.13,10.65-145.21,18.63Zm44,0c31.54-4.47,63.2-8.23,95.57-8.67v-1.37c-35.15.49-69.42,5-103.62,10Zm-61.36,0c52.11-8.54,103.12-20.6,156.93-21.53v-1.32c-55.65,1-108.14,14.15-162,22.85Zm92.56,0c21.28-2.34,42.68-4,64.37-4.3v-1.38C470,180.85,445,183.15,420,186.2Zm-37.64-38.12c-21.52-2.91-43-5.9-64.59-8.65h-5.51c23.48,3,46.91,6.4,70.34,9.65C429,154,459.83,153.93,495.48,153v-1.27C459.79,152.74,428.78,152.84,393.47,148.08Zm-1.23-6.69-17.2-2h-8.71l26.07,3c35.57,4.17,67.25,3.78,103.08,2.53v-1.25C459.64,145,427.84,145.47,392.24,141.39ZM322.58,186.2c57.79-8.81,113.35-24.55,172.9-25.7v-1.29c-61.34,1.21-118.23,18.27-177.85,27Zm87-46.77H396.21c34,3.38,64.86,2.9,99.27,1.63v-1.23C465.67,140.93,438.41,141.45,409.57,139.43Zm85.91,46.77v-1.29c-10.65.13-21.24.6-31.78,1.29ZM392.79,144.8q-21.71-2.7-43.44-5.37h-7c16.9,2.09,33.79,4.27,50.67,6.42,35.44,4.51,66.73,4.26,102.49,3.13v-1.25C459.69,148.9,428.28,149.2,392.79,144.8Zm-98.7-5.37c41,3.55,85.17,9,113.1,13-26.72-3.88-66.69-9.29-104.89-13ZM100.36,162.05c15.11,11.82,33.8,19.46,54.3,24.15h3.69c-22-4.64-42.07-12.53-58-25.14Zm0,18.52q5.42,3,11.15,5.63H114a140.24,140.24,0,0,1-13.68-6.93Zm0-15.24c12.73,9.53,27.71,16.26,44,20.87h3c-17.54-4.67-33.6-11.7-47.06-21.93Zm310.11-9.59c-2.71-.48-5.86-1-9.26-1.52ZM100.36,168.85a132.91,132.91,0,0,0,35.15,17.35h2.69a132.67,132.67,0,0,1-37.84-18.48ZM418,154c-3.24-.5-6.87-1-10.81-1.6Zm20.7,3.18s-7.84-1.26-20.7-3.18c11.11,1.69,17.79,2.95,17.82,3.37,0,0-96.52,20.38-167.32,28.84h6.55C346.89,177.67,438.8,158.12,438.7,157.17ZM100.36,176.49a137.16,137.16,0,0,0,19.07,9.71h2.48a135.87,135.87,0,0,1-21.55-11Zm0,8.29c.94.48,1.89,1,2.84,1.42h2.67q-2.79-1.32-5.51-2.76ZM424.11,158s-5.61-.95-13.64-2.27c5.89,1,9.76,1.92,9.77,2.46,0,0-44.31,10-64.61,13.47-33.23,5.74-67.43,11.56-101.45,14.53h5.95c33.37-3.16,66.62-9,99.12-14.73C379.89,167.86,424.17,159.71,424.11,158ZM283.42,139.43H271.65c29.68,2.08,59.35,5.68,88.55,9.22,10.23,1.25,27.58,3.51,41,5.57-12.67-2.05-27.73-4.39-37.17-5.55C337.66,145.41,310.36,141.73,283.42,139.43Z" transform="translate(-58.03 -50.35)" style="fill:#f1b90e"/></g><line id="UKAZOVAK" x1="58.42" y1="191.47" x2="106.97" y2="222.37" style="fill:none;stroke:#1d1d1b;stroke-miterlimit:10;opacity:0.34"/><line id="UKAZOVAK-2" data-name="UKAZOVAK" x1="421.32" y1="191.47" x2="372.77" y2="222.37" style="fill:none;stroke:#1d1d1b;stroke-miterlimit:10;opacity:0.34"/><g id="STENY"><polygon id="STENA" points="1 1 437.96 1 478.79 1 478.79 41.78 478.79 236.86 437.96 236.86 437.96 41.78 1 41.78 1 1" style="fill:#dadada;stroke:#1d1d1b;stroke-miterlimit:10;stroke-width:2px"/></g><g id="TEXTY"><path d="M331.35,281.82a23,23,0,0,1,3.33-.25,7,7,0,0,1,4.92,1.51,5.6,5.6,0,0,1,1.71,4.36,6.41,6.41,0,0,1-1.75,4.72,7.49,7.49,0,0,1-5.36,1.74,25.42,25.42,0,0,1-2.85-.14Zm1.57,10.73a10,10,0,0,0,1.58.09c3.35,0,5.17-1.87,5.17-5.15,0-2.86-1.6-4.68-4.92-4.68a8.83,8.83,0,0,0-1.83.16Z" transform="translate(-58.03 -50.35)"/><path d="M353.71,287.6c0,4.18-2.54,6.39-5.64,6.39s-5.45-2.48-5.45-6.16c0-3.85,2.39-6.37,5.63-6.37S353.71,284,353.71,287.6Zm-9.42.2c0,2.59,1.41,4.91,3.87,4.91s3.89-2.28,3.89-5c0-2.41-1.26-4.93-3.87-4.93S344.29,285.13,344.29,287.8Z" transform="translate(-58.03 -50.35)"/><path d="M355.74,281.82a16.53,16.53,0,0,1,3-.25,5,5,0,0,1,3.51,1,3,3,0,0,1,.95,2.3,3.19,3.19,0,0,1-2.28,3.1V288a3,3,0,0,1,1.78,2.45,18.66,18.66,0,0,0,.93,3.33H362a16.94,16.94,0,0,1-.81-2.9c-.36-1.67-1-2.3-2.43-2.35h-1.47v5.25h-1.57Zm1.57,5.53h1.6c1.67,0,2.74-.92,2.74-2.31,0-1.56-1.14-2.25-2.79-2.27a6.43,6.43,0,0,0-1.55.15Z" transform="translate(-58.03 -50.35)"/><path d="M367.48,290l-1.26,3.81H364.6l4.12-12.13h1.89l4.14,12.13h-1.67l-1.3-3.81Zm4-1.23-1.19-3.49c-.27-.79-.45-1.51-.63-2.22h0c-.18.72-.38,1.46-.61,2.2l-1.19,3.51Z" transform="translate(-58.03 -50.35)"/><path d="M375.7,292.88l6.74-9.85V283h-6.16v-1.31h8.19v.95l-6.7,9.82v.05h6.79v1.31H375.7Z" transform="translate(-58.03 -50.35)"/><path d="M396.48,287.6c0,4.18-2.54,6.39-5.64,6.39s-5.45-2.48-5.45-6.16c0-3.85,2.39-6.37,5.63-6.37S396.48,284,396.48,287.6Zm-9.42.2c0,2.59,1.4,4.91,3.87,4.91s3.89-2.28,3.89-5c0-2.41-1.26-4.93-3.87-4.93S387.06,285.13,387.06,287.8Z" transform="translate(-58.03 -50.35)"/><path d="M401.17,293.79l-4-12.13h1.69l1.89,6c.53,1.63,1,3.11,1.3,4.53h0c.34-1.4.84-2.93,1.38-4.52l2.06-6h1.67l-4.34,12.13Z" transform="translate(-58.03 -50.35)"/><path d="M409.49,290l-1.26,3.81h-1.62l4.12-12.13h1.89l4.14,12.13h-1.67l-1.3-3.81Zm4-1.23-1.19-3.49c-.27-.79-.45-1.51-.63-2.22h0c-.18.72-.37,1.46-.61,2.2l-1.19,3.51Zm.86-9.85L412.05,281h-1.3l1.67-2.11Z" transform="translate(-58.03 -50.35)"/><path d="M422.36,281.66h1.56v10.82h5.19v1.31h-6.75Z" transform="translate(-58.03 -50.35)"/><path d="M432.42,281.66v12.13h-1.57V281.66Z" transform="translate(-58.03 -50.35)"/><path d="M434.94,291.88a5.48,5.48,0,0,0,2.81.8c1.6,0,2.54-.85,2.54-2.07s-.65-1.79-2.29-2.42c-2-.7-3.21-1.72-3.21-3.44,0-1.89,1.57-3.29,3.93-3.29a5.59,5.59,0,0,1,2.68.59l-.43,1.28a4.9,4.9,0,0,0-2.3-.57c-1.66,0-2.29,1-2.29,1.82,0,1.13.74,1.69,2.41,2.34,2.06.79,3.1,1.78,3.1,3.56S440.5,294,437.64,294a6.32,6.32,0,0,1-3.1-.77Zm2.9-10.92L436,278.9h1.33l1.15,1.26h0l1.13-1.26h1.28L439,281Z" transform="translate(-58.03 -50.35)"/><path d="M446.33,283h-3.69v-1.33h9V283h-3.71v10.8h-1.59Z" transform="translate(-58.03 -50.35)"/><path d="M453.59,290l-1.26,3.81h-1.62l4.12-12.13h1.89l4.14,12.13h-1.67l-1.3-3.81Zm4-1.23-1.19-3.49c-.27-.79-.45-1.51-.63-2.22h0c-.18.72-.38,1.46-.61,2.2l-1.19,3.51Z" transform="translate(-58.03 -50.35)"/><path d="M268.7,164.83a8,8,0,0,0,4,1.14c2.3,0,3.64-1.22,3.64-3s-.93-2.56-3.28-3.46c-2.85-1-4.6-2.49-4.6-4.94,0-2.72,2.25-4.74,5.63-4.74a7.93,7.93,0,0,1,3.86.86l-.62,1.83a7,7,0,0,0-3.31-.82c-2.38,0-3.29,1.42-3.29,2.61,0,1.63,1.06,2.43,3.47,3.36,2.95,1.14,4.45,2.56,4.45,5.12s-2,5-6.11,5a9,9,0,0,1-4.45-1.11Z" transform="translate(-58.03 -50.35)" style="fill:#1d1d1b"/><path d="M281.76,150.14H284v8.4h.08c.47-.67.93-1.29,1.37-1.86l5.33-6.54h2.79l-6.31,7.4,6.8,10h-2.66L285.67,159,284,160.92v6.65h-2.25Z" transform="translate(-58.03 -50.35)" style="fill:#1d1d1b"/><path d="M295.78,150.37a23.74,23.74,0,0,1,4.32-.36c2.41,0,4,.44,5,1.42a4.35,4.35,0,0,1,1.37,3.31,4.57,4.57,0,0,1-3.28,4.45v.08c1.34.46,2.15,1.71,2.56,3.52a28.06,28.06,0,0,0,1.34,4.78h-2.32a21.79,21.79,0,0,1-1.17-4.16c-.51-2.41-1.44-3.31-3.49-3.39H298v7.55h-2.25Zm4.06-1.24-2.69-2.95H299l1.65,1.81h.06l1.63-1.81h1.86l-2.67,2.95ZM298,158.31h2.3c2.41,0,3.93-1.32,3.93-3.31,0-2.25-1.63-3.23-4-3.26A9.38,9.38,0,0,0,298,152Z" transform="translate(-58.03 -50.35)" style="fill:#1d1d1b"/><path d="M314.61,146.18l-3.31,3h-1.84l2.38-3Zm-2.67,4v17.43h-2.25V150.14Z" transform="translate(-58.03 -50.35)" style="fill:#1d1d1b"/><path d="M315.88,167.57V150.14h2.45l5.59,8.82a50.3,50.3,0,0,1,3.13,5.66l.05,0c-.21-2.33-.26-4.45-.26-7.17v-7.29H329v17.43h-2.27l-5.54-8.84a57.38,57.38,0,0,1-3.26-5.82l-.07,0c.12,2.2.18,4.3.18,7.19v7.45Zm5.71-18.23-2.69-3h1.89l1.68,1.81h0l1.63-1.81H326l-2.67,3Z" transform="translate(-58.03 -50.35)" style="fill:#1d1d1b"/><path d="M266,77.86A8,8,0,0,0,270,79c2.3,0,3.64-1.22,3.64-3s-.93-2.56-3.28-3.47c-2.85-1-4.6-2.48-4.6-4.94,0-2.72,2.25-4.73,5.63-4.73a8,8,0,0,1,3.86.85l-.62,1.84a7,7,0,0,0-3.31-.83c-2.38,0-3.29,1.42-3.29,2.61,0,1.63,1.06,2.43,3.47,3.36,3,1.14,4.45,2.56,4.45,5.13s-2,5-6.11,5a9,9,0,0,1-4.45-1.11Z" transform="translate(-58.03 -50.35)" style="fill:#1d1d1b"/><path d="M282.36,65.09h-5.3V63.17H290v1.92h-5.33V80.6h-2.28Z" transform="translate(-58.03 -50.35)" style="fill:#1d1d1b"/><path d="M300.93,72.43h-6.77v6.29h7.55V80.6h-9.8V63.17h9.41v1.89h-7.16v5.51h6.77Zm-5.2-10.19-2.71-3h1.91l1.66,1.79h.05l1.63-1.79h1.83l-2.63,3Z" transform="translate(-58.03 -50.35)" style="fill:#1d1d1b"/><path d="M304.63,80.6V63.17h2.46L312.67,72a46.63,46.63,0,0,1,3.13,5.67l.06,0c-.21-2.33-.26-4.45-.26-7.16v-7.3h2.12V80.6h-2.28l-5.53-8.84a54.52,54.52,0,0,1-3.26-5.82l-.08,0c.13,2.19.18,4.29.18,7.19V80.6Z" transform="translate(-58.03 -50.35)" style="fill:#1d1d1b"/><path d="M324.47,75.12l-1.81,5.48h-2.33l5.92-17.43H329l5.95,17.43h-2.41l-1.86-5.48Zm5.71-1.76-1.7-5c-.39-1.13-.65-2.17-.91-3.18h-.05c-.26,1-.54,2.1-.88,3.16l-1.71,5Z" transform="translate(-58.03 -50.35)" style="fill:#1d1d1b"/><path d="M135.73,282a14.83,14.83,0,0,1,2.87-.25,5,5,0,0,1,3.33.88,2.54,2.54,0,0,1,1,2.14,2.89,2.89,0,0,1-2.05,2.67v0a3.13,3.13,0,0,1,2.5,3,3.26,3.26,0,0,1-1,2.43c-.85.78-2.22,1.14-4.2,1.14a18.8,18.8,0,0,1-2.43-.14Zm1.57,5h1.42c1.66,0,2.63-.87,2.63-2,0-1.42-1.08-2-2.66-2a6.93,6.93,0,0,0-1.39.11Zm0,5.81a7.43,7.43,0,0,0,1.31.08c1.62,0,3.12-.6,3.12-2.36s-1.42-2.35-3.13-2.35h-1.3Z" transform="translate(-58.03 -50.35)"/><path d="M155.86,287.8c0,4.17-2.54,6.39-5.64,6.39s-5.45-2.49-5.45-6.16c0-3.85,2.39-6.37,5.63-6.37S155.86,284.2,155.86,287.8Zm-9.42.2c0,2.59,1.41,4.91,3.87,4.91s3.89-2.29,3.89-5c0-2.41-1.26-4.93-3.87-4.93S146.44,285.33,146.44,288Z" transform="translate(-58.03 -50.35)"/><path d="M166.37,293.59a7.74,7.74,0,0,1-3.2.58c-3.43,0-6-2.16-6-6.14a6,6,0,0,1,6.34-6.37,6.47,6.47,0,0,1,2.88.54l-.38,1.28a5.66,5.66,0,0,0-2.45-.51c-2.84,0-4.73,1.82-4.73,5,0,3,1.71,4.88,4.66,4.88a6.23,6.23,0,0,0,2.56-.51Zm-3.87-12.44-1.89-2h1.33l1.15,1.26h0l1.13-1.26h1.3l-1.85,2Z" transform="translate(-58.03 -50.35)"/><path d="M168.33,294V281.86H170l3.89,6.14a35,35,0,0,1,2.18,3.94l0,0c-.14-1.62-.18-3.1-.18-5v-5.07h1.48V294h-1.58L172,287.83a40.55,40.55,0,0,1-2.27-4.05l0,0c.09,1.53.13,3,.13,5V294Z" transform="translate(-58.03 -50.35)"/><path d="M181.74,281.86V294h-1.57V281.86Z" transform="translate(-58.03 -50.35)"/><path d="M193,293.59a7.76,7.76,0,0,1-3.21.58c-3.42,0-6-2.16-6-6.14a6,6,0,0,1,6.33-6.37,6.4,6.4,0,0,1,2.88.54l-.37,1.28a5.69,5.69,0,0,0-2.45-.51c-2.85,0-4.74,1.82-4.74,5,0,3,1.71,4.88,4.67,4.88a6.18,6.18,0,0,0,2.55-.51Z" transform="translate(-58.03 -50.35)"/><path d="M201.2,288.3h-4.72v4.38h5.26V294h-6.83V281.86h6.56v1.31h-5V287h4.72Z" transform="translate(-58.03 -50.35)"/></g><rect id="DORAZ" x="431.3" y="165.21" width="6.62" height="34.76" style="fill:#fff;stroke:#1d1d1b;stroke-miterlimit:10;stroke-width:2px"/><rect id="BOČNICA" x="41.84" y="41.86" width="6.62" height="158.11" style="fill:#fff;stroke:#1d1d1b;stroke-miterlimit:10;stroke-width:2px"/></svg>