<svg id="Vrstva_1" data-name="Vrstva 1" xmlns="http://www.w3.org/2000/svg" width="479.79" height="243.81" viewBox="0 0 479.79 243.81"><rect x="42.18" y="42.7" width="395.13" height="140.26" style="fill:#f1b90e"/><g style="opacity:0.49"><path d="M200.18,109c.51-.19,1-.38,1.55-.55l-2-.09C199.84,108.6,200,108.81,200.18,109Zm-25.1,19c-4.1-1.82-8.22-3.58-12.3-5.36-8.34-3.72-17.06-7.5-24.91-12a37.24,37.24,0,0,0,6.61,5.84q-7.74-4.32-15.27-9c8.88,11.58,26.59,17,41.76,23,1.43.53,2.83,1.06,4.23,1.6-2.23-1.09-4.47-2.17-6.68-3.26q-5.6-2.62-11-5.41c3.18,1.32,6.42,2.47,9.59,3.49,5,1.88,10,3.71,14.5,5.72q4.71,1.53,9.48,2.86l-3.83-1.77C183.25,131.76,179.17,129.88,175.08,128.07Zm13.8,9.53c-2.25-.94-4.51-1.84-6.79-2.72s-4.53-1.85-6.89-2.75c1.61.79,3.21,1.58,4.84,2.36C183,135.62,185.9,136.64,188.88,137.6Zm25.75-21.36c-3.48-2.16-7.9-3.49-12.1-4.81C205.82,114.14,210.1,115.53,214.63,116.24Zm-16.58-6.31c1.42.53,2.94,1,4.48,1.5a16.26,16.26,0,0,1-2.35-2.41C199.45,109.3,198.74,109.6,198.05,109.93Zm-21.22,3.32a80,80,0,0,0,10.74,3.67c-2.85-1.46-5.65-3-8.37-4.66A91.36,91.36,0,0,1,170,105.4c-1.29.56-2.58,1.17-3.85,1.82A44.27,44.27,0,0,0,176.83,113.25Zm36.84,9.1c-4.78-1.74-9.77-3-14.69-4.34a104.53,104.53,0,0,0,33.9,9.35q3.59.33,7.18.38a71.16,71.16,0,0,0-8.39-1.81A139.31,139.31,0,0,1,213.67,122.35Zm41.93,3a6.25,6.25,0,0,1-.34.92l7.71-1.31a60,60,0,0,1-7.65-5.08A9,9,0,0,1,255.6,125.32Zm-72.47-24.23-2.27,0a36.71,36.71,0,0,0-12.65,2.78c.58.51,1.16,1,1.75,1.5a70.16,70.16,0,0,1,10.81-3.73C181.55,101.46,182.34,101.27,183.13,101.09Zm6.84,1.29a158.18,158.18,0,0,0-15.78,1.79,24,24,0,0,0,7.41,7.21c5.34,3.12,11.3,5,17.38,6.63q-4.2-2-8.21-4.18A121.84,121.84,0,0,1,178.54,106a55,55,0,0,1,21-3.75c3.63.38,7.27.74,11,.91,1,.16,2,.35,3,.55a68.21,68.21,0,0,0-16.86,1.88c7.29-.14,14.23-.32,21.57,1.85a33.73,33.73,0,0,0-16.52,1,131.54,131.54,0,0,1,15.72,1.42c9.21,2.16,16.45,5.47,15.68,7.11-5.31-.1-12.15.24-18.5-.76.2.13.41.23.6.36a77.06,77.06,0,0,0,14.14,2.27c1.47-.43,3.76,0,5.16-.63-2.9-5.2-8-8.6-13.84-10.24,3.56.82,7,1.75,10.08,2.73,4.39.42,7.46,2.4,10.47,4.54a19,19,0,0,0-5.58-5.78l2.09.68c5.22,1.19,9.42,3.73,13.37,6.56,1.42,1,2.81,2.08,4.2,3.12a14,14,0,0,0-1.83-3.42,37.67,37.67,0,0,0-9.63-7.25c4.85,1.61,9.6,3.37,14.65,5.55,1.12.47,2.22,1,3.3,1.46l-1.25-.69c-22.34-12.28-51.71-20.22-77.43-14.41,4.48,0,8.84.38,13.18.82C194.15,102,192,102.2,190,102.38ZM227.37,122a120.15,120.15,0,0,1-12.9-2.63c-4.23-1.57-9.34-2.49-14.21-3.89l-.36-.11.72.47c8.48,5.25,20.09,7.36,30.86,6.47l.77-.07A13.84,13.84,0,0,0,227.37,122Zm12.69,5.72c1.91.47,3.84.93,5.67,1.21,4.34.69,8.09.43,9.53-2.71l-7.37,1.26Q244,127.8,240.06,127.74ZM155.61,99.23c-4.13.74-8.18,1.6-12.23,2.48a48.14,48.14,0,0,0,8.94,7.69,7.88,7.88,0,0,0,2.39,4,22.14,22.14,0,0,0,4.45,3.74c-9-4.52-17.33-9.87-26.22-14.73a4.22,4.22,0,0,1,1.68-4.28c3.75-.25,7.5-.73,11.25-1.28,6.58-1,13.16-2.1,19.74-2.41l.29-.06-7.42.56a100.37,100.37,0,0,0-16,1.59c-2.57.43-5.11.91-7.63,1.38a18.12,18.12,0,0,1,5.9-2.59c-1.4.06-2.81.11-4.22.15l-3.35.08.44-.17c2.24-.81,4.74-1.59,7.27-2.34h-4.49c-3.77.5-7.53,1.08-11.27,1.84-1.49.31-3,.64-4.47,1l-1.18,0c.06.07.12.13.17.2q-2.75.69-5.49,1.55c5,3.43,10,6.69,15,9.84a27.77,27.77,0,0,1-3-4.81,78.67,78.67,0,0,0,11.63,8,27.46,27.46,0,0,1-3.45-4.81c8.33,6.53,18.46,11.65,28.8,15.75,2.57,1,5.17,2,7.79,3a107.09,107.09,0,0,0,14.59,8.23,114.11,114.11,0,0,0,11.26,4.26c-1.94-.5-3.87-1-5.8-1.55l6.81,3.15,2.55,1.15h40.75q-6.39-.36-12.84-.63a110.93,110.93,0,0,1-18-3.29,70.49,70.49,0,0,0-18.39-9c-6.62-2-13.85-3-20.46-4.76-1.93-.5-3.8-1.06-5.59-1.71-.32-.17-.64-.32-1-.48a44.5,44.5,0,0,1-6.56-6.94,97.41,97.41,0,0,0,23,8.06c-8.44-3.34-16-6.21-21.75-12.32a4,4,0,0,1-.47-.71,104.75,104.75,0,0,0,13.66,7.58c6.31,2.48,12.79,4.86,19.38,7.08s13.28,4.3,20,6.16a120.14,120.14,0,0,0,13.8,3,764.44,764.44,0,0,0,77.29,5q-4-3.15-8.22-6.06t-8.69-5.56c-3.81-2.33-7.75-4.59-11.8-6.73s-8.22-4.19-12.47-6.09C237.38,102,208.77,95.21,181.84,98c13-.45,26.74-.9,39.87,2.87,5.12,1,10.29,2.21,15.37,3.66,8,1.75,14.15,5.82,22,7.82,3.47,1.53,6.89,3.16,10.33,4.88s6.9,3.51,10.45,5.37q5,2.76,9.82,5.86T299,135c-33.84-.25-69.63-.17-101.38-10.91a133.14,133.14,0,0,1-13.34-5.3c-8.3-3.7-17-7.19-25.47-11.93a5.41,5.41,0,0,1,.72-3.48,62.85,62.85,0,0,1,6.15-2.5,71.11,71.11,0,0,1,9.83-2.32q-4.75.48-9.47,1.24c-1.38.3-2.87.59-4.37.89a13,13,0,0,1,3.21-2.21c.82-.31,1.64-.59,2.47-.85-1.1.09-2.2.2-3.28.32,2.48-.83,5-1.55,7.5-2.15-2.61.16-5.22.4-7.85.74S157.7,97.74,155.61,99.23Zm77.31-.67,1.79.47c-.25-.08-.5-.17-.76-.24Zm-41.84-5.51H172.34c-2.16.39-4.31.82-6.44,1.34l3.74-.28C176.85,94,184,93.43,191.08,93.05Zm5.36,46.78c-2.54-.7-5.06-1.43-7.56-2.23,1.71.71,3.4,1.46,5.08,2.23Zm107.64-13.38c-5.19-2.22-10.44-4.51-15.74-6.81-4.25-2-8.58-4.07-13-6.08A296.45,296.45,0,0,0,234.71,99c13,4.1,25.78,9.45,38.68,14.92,4.21,1.93,8.42,3.87,12.72,5.81,4.22,1.79,8.44,3.58,12.67,5.34,12.52,5.24,25.14,10.31,38.26,14.73h1.71l-4.4-1.46C324.58,135.05,314.45,130.89,304.08,126.45Zm-32-10.11a109.09,109.09,0,0,0,10.65,4.52q6.82,2.94,13.59,6c9,4.09,17.82,8.38,26.61,13H326c-2.11-.83-4.25-1.72-6.37-2.63-6.6-3.43-13.34-6.85-20.2-10.17q-5.13-2.49-10.37-4.88Q282.44,119,275.58,116t-14-5.6q-2.64-1-5.32-1.86c1.89.94,3.74,1.88,5.62,2.72C265.27,113,268.63,114.69,272.07,116.34ZM174.51,95.16c-1,.2-2,.43-3,.67,2.49-.16,5-.25,7.43-.29,15.21-2.4,29.39,3.29,44.4,1.1,3.17.55,6.36,1.2,9.56,1.92C214.07,93.74,194.27,91.6,174.51,95.16Zm-16.46-2.11h-5.42c-3.47.53-7.1,1.09-10.29,1.87-.53.13-1,.27-1.55.41a115.66,115.66,0,0,0,12.87-1.18C155.13,93.75,156.59,93.39,158.05,93.05ZM446.25,131c-40-11.7-82-22.23-122-34.82q-4.67-1.59-9.35-3.11h-3.49q6.93,2.33,13.8,4.8c39.7,13.08,81.89,22.64,122,33.92q6.56,1.53,13.13,2.95c9,1.93,18,3.66,27.13,5.11h7.86v-.68c-10.74-1.46-21.48-3.07-32.19-5Q454.7,132.73,446.25,131Zm-299.89-9.44c-13.12-6.7-26-13.94-39.12-20.55a36.28,36.28,0,0,0-7-2.89v1.1C120.91,107,139,119.11,157.44,130a86.53,86.53,0,0,0,8.11,4.44q-4.41-1.72-8.74-3.63c2.92,1.59,5.86,3.14,8.83,4.61,3.93,1.62,7.92,3.08,11.93,4.44H178c-2.12-.86-4.24-1.75-6.34-2.7q4.41,1.43,8.85,2.7h3.88A143.19,143.19,0,0,1,159.57,128C155.13,126,150.74,123.77,146.36,121.54ZM100.2,102.29v2.42c8.27,2.46,17,3.74,24.35,8.26a205.42,205.42,0,0,0,28.07,15.91q2.08,1,4.19,1.9c-1.26-.69-2.53-1.38-3.79-2.09C135.94,119.16,119.34,108.56,100.2,102.29Zm178.59,26.78q-5.13,1.26-10.34,2a112.24,112.24,0,0,0,14.93-1.1q-4.51-3.39-9.34-6.48L272,122.21A33.54,33.54,0,0,1,278.79,129.07Zm-54.31-1c-3.82-.66-7.69-1.51-11.53-2.56-5.68-3.19-11.8-5-17.95-6.61-2.48-.66-5-1.29-7.43-2,2.23,1.15,4.48,2.25,6.78,3.28,21.78,9.78,46.37,14.19,70.24,11.42,1.29-.15,2.57-.33,3.86-.52C254.15,131.27,239.44,129.29,224.48,128.07Zm-32.91-21a42,42,0,0,0-4.09,1.66c3.2,3.4,7.69,5.26,12.42,6.65A27,27,0,0,1,191.57,107.08Zm54.92,11.7a59.92,59.92,0,0,1-5.25-3.51,17.26,17.26,0,0,1,2,4.74C244.34,119.64,245.44,119.23,246.49,118.78Zm-3,2.21c-.06-.34-.16-.65-.24-1a50.57,50.57,0,0,1-11,2.25C238,123.33,243.91,126.15,243.46,121ZM181.84,98l-2.62.09c-1.26.15-2.51.33-3.75.53,1.31-.13,2.62-.24,3.93-.34Zm45.37,37.55c22.81.26,45.87,3,68.32,4.31h23.06c-3.82-.07-7.63-.17-11.44-.34-5.29-.23-10.56-.55-15.81-.88-28.78-2.14-58.7-3.37-86.39-10.06a31.11,31.11,0,0,1,6.31,3.75A114.09,114.09,0,0,0,227.21,135.52Zm-27.83-8.4q2.77.75,5.57,1.43a60.9,60.9,0,0,0-7.75-2.86c-5.17-1.58-10.59-2.81-15.58-4.56l-.25-.06c1.2.48,2.42,1,3.65,1.47C189.72,124.28,194.51,125.79,199.38,127.12Zm70.51-6.43a59.37,59.37,0,0,0-8.08-4.5c3.52,1.94,6.91,4,10.17,6C271.3,121.69,270.6,121.18,269.89,120.69Zm-13.6-12.15c-4.63-2.31-9.46-4.59-15.42-5.38a178.23,178.23,0,0,0-18.36-4.45c-13.91-.77-28.83-3.79-43.9-3a47.6,47.6,0,0,0-11.3,2c1.33-.11,2.67-.2,4-.25C200.28,94.93,229.53,99.49,256.29,108.54Zm-64.72-1.46c1.61-.56,3.32-1.07,5.11-1.5-2,0-3.92.07-5.93,0C191,106.13,191.28,106.61,191.57,107.08ZM100.2,133.65q11.14,3,22.18,6.18h5.32c-9.06-2.61-18.2-5.05-27.5-7.21Zm0-8.64a59.69,59.69,0,0,1,10.53,3q15.17,6.45,30.64,11.77h1.52c-14.3-6.12-27.91-12.41-42.69-16.22Zm0,3.37v1.36c11,3.08,21.85,6.56,32.7,10.09h5.43c-7.83-2.7-15.71-5.44-23.74-8.16C109.71,130.27,105,129.27,100.2,128.38Zm0,9.84q3.49.78,7,1.61H116c-5.2-1.21-10.45-2.3-15.76-3.22Zm227-32.91c-5-1.67-9.87-3.41-14.73-5.13-6.87-2.43-13.79-4.83-20.75-7.13H290q4,1.36,8,2.76,7.94,2.81,15.81,5.7c42.42,12.55,83.77,27.5,127.1,38.32h3.6l-3-.65C403,131,366.13,115.31,327.16,105.31ZM159,139l2.16.88h.27l-2.75-1ZM100.2,120.44V121c17,5.61,33.75,12.5,50.7,18.8h2.95l-4.12-1.58C133.36,131.93,117.15,125.51,100.2,120.44ZM446.32,135c-39.41-9.43-77.1-22.2-116-34q-7.44-2.64-14.94-5.13c-3-1-6-1.93-9-2.87H300q6.72,1.89,13.38,4,7.66,2.42,15.26,5.15c39.2,11.39,78,24.4,117.31,34.29q6.56,1.47,13.15,2.83l2.55.52h7.18c-3.12-.61-6.24-1.23-9.35-1.89Q452.87,136.56,446.32,135Zm-294.61-2.42c-14.87-6.68-29.7-13.69-45.59-18.67-1.91-.65-3.89-1.4-5.92-2.12v1.08c3.36.87,6.74,1.78,10.26,2.86,14.42,5.38,28.27,12.24,42.22,18.54,4.23,1.91,8.47,3.77,12.74,5.52h2.8l-1.58-.73C161.63,137,156.67,134.85,151.71,132.62Zm-51.51-17v1.78c3.41,1,6.8,2,10.19,3.08,16.14,5.74,31.59,12.12,47.06,17.91l1.22.45c-13.21-5.46-26.37-11.48-40.25-16.74C112.57,119.9,106.47,117.41,100.2,115.6Zm206.43-13.74c-8.42-3-16.87-6-25.36-8.81h-.14c8,2.84,15.89,5.85,23.77,8.91,5.18,2,10.36,4,15.78,6,28.05,9,56.47,15.8,85,26.72,5.49,1.89,10.85,3.61,16.21,5.19H431c-36.26-10.87-71.8-22.24-108.19-32.29C317.22,105.71,311.93,103.77,306.63,101.86ZM410.4,93.05c27.9,7.35,56.46,13.25,84.93,17.87v-2.17c-25.64-4.54-51.52-9.55-76.94-15.7Zm22.56,0c20.69,4.84,41.56,9.17,62.37,12.74V104c-18-3.22-36.12-6.92-54.13-11Zm22.61,0c13.15,2.94,26.38,5.67,39.76,8V99q-15.24-2.78-30.35-5.9Zm-19.79,29.62c-32.2-7-63.53-16.44-95.18-25.68q-5.85-2-11.7-3.94h-5.79l4.67,1.33q7.38,2.09,14.81,4.09c35.4,8.92,70.78,21.23,105.79,29q6.57,1.48,13.16,2.84c11.19,2.29,22.46,4.27,33.79,5.83v-2c-15.56-2.37-31-5.29-46.43-8.61Q442.32,124.18,435.78,122.67Zm55.65-29.62H483.3q6,1.15,12,2.26V93.8C494,93.55,492.73,93.31,491.43,93.05Zm-64.52,17.51c-22-4.89-42.33-12.18-64.13-17.51h-9.16c25.32,6.37,51.75,13.71,77.17,20q8.55,2,17.15,3.89,23.57,5.1,47.39,8.86v-1.68C477.42,121.3,459.61,118,441.91,114Q434.4,112.38,426.91,110.56ZM398.63,93.05h-5.29l5.54,1.54a969.63,969.63,0,0,0,96.45,21.24v-1.41c-32.41-5.3-64.66-12.94-96.08-21.2ZM259.42,104.71c-5.78-2.22-11.73-4.25-17.78-6C247.38,100.64,253.48,102.55,259.42,104.71Zm153.36-2.81c-11.39-3-23.09-6.07-34.29-8.85h-5.71c18.63,4.43,36.05,10.33,54.91,14.63q7.49,1.78,15,3.44c17.45,3.82,35,7,52.63,9.79v-1.47c-22.72-3.62-45.33-8.43-67.62-13.83Q420.21,103.8,412.78,101.9ZM437,118.24c-30.64-8.22-62.5-15.69-92.62-24.68l-1.7-.51h-5.37q4.62,1.24,9.26,2.45c30.49,6.54,59,17.45,90,24.14q6.53,1.58,13.09,3c15.11,3.39,30.32,6.32,45.65,8.51v-1.66c-15.17-2.22-30.25-5.08-45.24-8.34Q443.52,119.76,437,118.24Zm-84,18.91.16,0-.18,0Zm-1.29-.32,1.27.31-4.35-1.28ZM237.24,93.05h-7.88a286.14,286.14,0,0,1,29.34,7.42q-7.09-2.85-14.21-5.58C242.06,94.22,239.65,93.62,237.24,93.05ZM315.46,125c-5.13-1.93-10.26-3.94-15.4-6-4.87-2.25-9.82-4.52-14.82-6.75s-10.07-4.41-15.21-6.47c-8.54-3-17.27-5.9-26.09-8.36,7.79,4.38,17.16,7.35,24.87,11.06-3-1.36-6.18-2.61-9.39-3.77,3.46,1.32,6.86,2.72,10.19,4.16l1.32.68,3.26,1.39c2.18,1,4.36,2,6.55,3,6.59,3.09,13.21,6.19,20,9.11,5,2.16,10,4.23,15.16,6.12s10.41,3.59,15.85,5c4.7,1.44,9.43,2.86,14.15,4.32,1.34.41,2.69.84,4,1.27h.45l-1.74-.53Q341,137,333.47,134.55c-9.73-3-19.45-6.66-29.21-10.58-4.88-2-9.76-4-14.66-6q-6.14-2.81-12.4-5.64l-2.29-1.06c1.9.8,3.81,1.59,5.72,2.35q9.78,3.91,19.81,7.1,7.4,2.6,14.85,5t14.93,4.8c2.25.6,4.5,1.22,6.73,1.85q-3.07-.93-6.14-1.91C325.7,128.75,320.58,126.89,315.46,125ZM337,132.4l4.9,1.48,6.71,2c-2.51-.79-5-1.57-7.56-2.31ZM235.2,96.91c2.16.56,4.3,1.15,6.44,1.77L240,98.13Q237.61,97.49,235.2,96.91Zm-22.34-3.86a91.15,91.15,0,0,1,11.32,1.59c3.62.61,7.31,1.37,11,2.27a186,186,0,0,0-18.66-3.86Zm149,46.78h1.35q-5-1.49-10.11-2.65A90.8,90.8,0,0,1,361.85,139.83ZM227.14,93.05h-1.22c6,1.23,12.05,2.71,18,4.37q-.81-.45-1.59-.93C237.24,95.1,232.15,94,227.14,93.05Zm-63.38,44.24c1.93.88,3.88,1.72,5.84,2.54h2.25c-4.52-1.5-8.93-3.11-13.26-4.89C160.3,135.73,162,136.52,163.76,137.29ZM294.54,102.9c-8.92-3.54-17.94-6.87-27.08-9.85h-5.13c9.17,3,18.21,6.36,27.17,9.92q8,3.19,15.92,6.54c29.79,9.42,58.95,20.51,88.57,30.32h3.66c-29.28-9.76-58.09-20.75-87.53-30.57C304.9,107.11,299.74,105,294.54,102.9Zm6.24.72c-9.76-3.72-19.58-7.31-29.5-10.57h-1.73c10.87,3.73,21.61,7.89,32.3,12.11,5.4,2.13,10.84,4.26,16.63,6.23,31.29,9.52,60.84,17.49,91.09,28.44h2.95C380.59,130,348.69,119,317.1,109.74,311.49,107.75,306.14,105.67,300.78,103.62ZM144,128a146.19,146.19,0,0,0,13.71,6.6l.91.37q-5.29-2.43-10.45-4.93ZM100.2,107.38V108c15.21,5.66,29.27,12.85,43.77,20a130.91,130.91,0,0,1-12.85-8C121.89,113.47,111.15,110.37,100.2,107.38Zm186.4-2.65c-10.32-4.27-20.74-8.27-31.35-11.68h-5.67c11.41,3.47,22.64,7.54,33.71,12,5.45,2.16,10.85,4.41,16.26,6.68,28,10.69,56.27,18.23,84.82,28.15h3.28c-28-9.71-55.84-18.8-84.62-28.15C297.52,109.34,292.08,107,286.6,104.73ZM336,129.33l-1.59-.39,7.74,2.49c3.58,1,7.14,2.18,10.67,3.36q6.75,2.4,13.55,5h1.57c-6.92-2.39-13.92-4.64-20.86-7Q341.48,131.12,336,129.33Zm-22.72-7.79q-8-2.94-16-6c-5.13-2.41-10.31-4.73-15.56-6.92-7.46-3-15.16-5.76-23-8.2,5.16,2.06,10.31,4.18,15.51,6.43q4.91,2.28,9.91,4.55c6.68,3,13.52,5.89,20.62,8.51,5.08,1.82,10.21,3.54,15.4,5.12q7,2.13,14.26,3.86l-5.13-1.65C323.92,125.43,318.6,123.51,313.27,121.54Zm-41-19q-3.37-1.25-6.78-2.43,4.29,1.65,8.55,3.42c5.39,2.23,10.75,4.58,16.07,7,8.52,3.48,15.75,8,24.67,10.86,19.6,5.16,38.08,11.47,56.75,18.4h3.25c-28.75-10.39-57.21-21.39-86.23-30.91Q280.49,105.64,272.29,102.59Zm-29.06-9.54q11.28,3.23,22.28,7.11c-6.79-2.63-13.64-5-20.59-7.11Z" transform="translate(-58.03 -50.35)" style="fill:#f1b90e"/></g><g style="opacity:0.49"><path d="M324.44,194.87c-3.51-.85-7.06-1.61-10.72-2.13q-6.89-1.41-13.73-2.94t-13.69-3.26h-3.25c4.66,1.26,9.34,2.5,14.09,3.68,3.49.87,7,1.71,10.55,2.52,4.49,1.1,9.05,2.14,13.67,3.08s9.27,1.78,14,2.5c1.74.26,3.49.49,5.25.71-1.93-.5-3.83-1-5.74-1.43C331.4,196.69,327.94,195.73,324.44,194.87Zm83.92-2.45a120.37,120.37,0,0,1-12.08,1.66c1.91-.5,3.78-1,5.59-1.58A137.23,137.23,0,0,0,415.65,188a21.83,21.83,0,0,0-1.73-1.48H409.8l1.49.63a48.24,48.24,0,0,1-18,7.2c-3.36.33-6.73.66-10.1,1.18-.95,0-1.91.06-2.86,0A60.82,60.82,0,0,0,395,190.85c-6.54,1.45-12.75,2.87-19.9,2.26a30.26,30.26,0,0,0,14.63-4,123,123,0,0,1-14.52,1.58c-8.83-.27-16.17-1.93-15.88-3.55,1-.19,2.15-.42,3.3-.65H358A22.5,22.5,0,0,0,372.8,193c-3.41-.09-6.72-.3-9.76-.62-4.06.42-7.31-.8-10.56-2.19a19.49,19.49,0,0,0,6.46,4.2l-2.05-.23c-5-.12-9.41-1.65-13.67-3.48-1.53-.67-3-1.37-4.56-2.05a14.3,14.3,0,0,0,2.5,2.76,38.35,38.35,0,0,0,10.47,4.77c-4.77-.56-9.49-1.28-14.58-2.33q-1.68-.33-3.33-.72c.44.13.86.27,1.3.39C358.18,200.53,386.61,202.34,408.36,192.42Zm12.75-5.25-1.2-.63h-1.32a60,60,0,0,1-8.24,4.93c-.66.33-1.33.64-2,.95.67-.14,1.36-.28,2-.44A32,32,0,0,0,421.11,187.17ZM391,188.38c-.41.26-.83.53-1.26.78l1.87-.29C391.44,188.69,391.24,188.54,391,188.38ZM340.58,199c4.75,1.24,9.66,2.42,15.23,2.05a174.76,174.76,0,0,0,17.64.66c12.73-1.84,26.92-1.84,40.31-5.28a41.81,41.81,0,0,0,9.7-3.83q-1.75.51-3.57,1C394.43,201.1,366.93,202.31,340.58,199Zm56.34-12.49a24,24,0,0,1,2.35,2,35.16,35.16,0,0,0,3-2Zm2.35,2a48,48,0,0,1-4.23,2.29c1.75-.39,3.51-.78,5.33-1.14C400,189.32,399.65,188.93,399.27,188.56Zm-35.16,15.21-1.73-.1.74.08ZM209.88,186.54c12.15,2.14,24.29,4.05,36.4,4.31-8.86-.37-17.27-2.18-25.52-4.31ZM309,194.87c4.33,1,8.74,2.1,13.19,3.11a288.47,288.47,0,0,0,40.23,5.69c-12.72-1.33-25.57-3.82-38.55-6.4-4.26-1-8.54-2-12.89-2.92s-8.5-1.69-12.74-2.51c-10.14-2-20.32-3.82-30.65-5.3h-3.37c9.24,1.22,18.94,3,28.92,5.05C298.32,192.65,303.62,193.76,309,194.87Zm101.33.12,2.34-.56c1.1-.36,2.18-.75,3.25-1.15-1.15.35-2.3.7-3.46,1Q411.37,194.66,410.29,195Zm7.3,1.21c.85-.37,1.69-.76,2.52-1.15q-3.3.88-6.63,1.61c-13.11,4.94-27.3,2.39-40.28,7.1-3,.08-6,.08-9.09,0C382.29,204.68,400.66,203,417.59,196.2Zm-43.94,3.47c-4.86.05-9.82-.12-14.76-.5-7.64-.12-14.18-2.66-21.75-3-3.51-.75-7-1.6-10.52-2.51s-7.09-1.91-10.75-2.94q-5.21-1.58-10.29-3.5c-.55-.2-1.1-.42-1.65-.64h-2.54q3.93,1.56,7.93,2.93c4,1.41,8.12,2.73,12.31,3.92s8.43,2.28,12.74,3.21c24.86,4.85,52.33,5.79,75.92-1.61C398.71,197.77,386.41,200.68,373.65,199.67Zm60-10.59c2.05-.81,4.06-1.67,6.06-2.54H428.4a50.32,50.32,0,0,1-4.23,2.86,61.12,61.12,0,0,1-8.29,3.88c2.78-.87,5.52-1.81,8.22-2.84,1.18-.52,2.45-1.06,3.73-1.6a10.77,10.77,0,0,1-2.36,2.58c-.65.43-1.33.83-2,1.21,1-.28,1.93-.58,2.88-.88q-3,1.8-6.23,3.3c2.31-.62,4.61-1.31,6.9-2.09S432.11,190.81,433.62,189.08Zm-84.46-2.54c-.79.47-1.55,1-2.27,1.48,1.95.61,3.77,1.43,5.59,2.2a17.55,17.55,0,0,1-2.81-3.68Zm68.59,46.52-3,.25h20.22c19.76-.65,39.53-.85,59.3-.85C469,229,443.33,230.93,417.75,233.06Zm4.31-9.14-14.39,1.67c-41.94,7-85,2.45-128-.77-4.77-.36-9.56-.7-14.35-1-34.1-1.6-69-6.24-102.51-6.89q-6.28-.13-12.55-.15a450.86,450.86,0,0,0-50,2.42v1.4c20.72-1.66,41.63-2.13,62.56-1.87q6.28.07,12.55.25c30.75.46,61.31,3.24,92.12,5.81q8.35,1.08,16.71,2c39,4.33,78.18,5.74,117.55,0l15.45-1.33c25.66-2.25,51.16-4.86,77.08-6C469.68,218.86,446,221.19,422.06,223.92Zm72.18-12.84c-22.43-2.61-43,3.71-65.14,8.34Q448,217.07,467,212.94C475.69,211.08,485.51,212.94,494.24,211.08Zm-322.3,19.58c-23.94-.38-47.77.35-71.54,2l0,.68H111c25.09-1.5,50.54-1.37,75.79-.42,3.22.13,6.43.28,9.64.42h26.7c-12.21-.86-24.3-2-36.83-2.28Q179.12,230.78,171.94,230.66Zm86.28.13c-24.85-1.12-51.05-3-76-4.08q-8.2-.27-16.42-.38c-21.88-.29-43.68.25-65.45,1.82l0,1.41c23.8-1.47,47.65-2.13,71.59-1.68q7.19.13,14.38.41c24.14.45,47.06,4.17,71.44,4.32l13.16.4,8.19.3h7q-6.72-.66-13.42-1.51Q265.47,231.27,258.22,230.79Zm154.81,0c-5.41.38-10.83.76-16.29,1.17q-6,.75-12.09,1.34h8.88c1.57-.2,3.13-.41,4.7-.64l16.06-1.1c26.74-1.81,53.35-3.41,79.95-2.83C467,227,440.09,228.89,413,230.8Zm2.29-3.6c-5.23.59-10.45,1.2-15.71,1.81-39.45,6.27-79.48,2.07-119.83-.72-5.77-.39-11.54-.76-17.32-1.07-29.09-.34-57.47-5-87.11-5.36q-6.28-.23-12.56-.36a499.39,499.39,0,0,0-62.54,2.17l0,1.41a566.16,566.16,0,0,1,62.53-2.16q6.27.09,12.55.28c29.64,1.82,60.2,2.75,89.56,5.37,5.33.49,10.69,1,16,1.43,21.07,1.82,42.31,3.3,63.46,3.31h.22a345.18,345.18,0,0,0,49-3.19c5.64-.49,11.22-.9,16.79-1.31,27.87-2.05,55.84-4.37,83.81-3.79C467.64,221.54,441.46,224.22,415.32,227.2Zm-81.69-40.66c1.7.64,3.37,1.36,5,2.12a9.42,9.42,0,0,1-1.08-2.12Zm90.75,33.83c1.59-.3,3.16-.62,4.72-1-1.71.22-3.42.42-5.13.61q-7.17.79-14.33,1.35l-1.23.15,3.51-.06A110.17,110.17,0,0,0,424.38,220.37Zm-101.31-30.8a37.44,37.44,0,0,1-5.3-3h-2.48c1.85.77,3.71,1.52,5.6,2.22C321.61,189,322.34,189.3,323.07,189.57Zm64.35-3,.9.09-.21-.09Zm.9.09a15.44,15.44,0,0,1,2.71,1.75c.59-.39,1.16-.79,1.7-1.21C391.32,187,389.83,186.79,388.32,186.63Zm-238.1,22.9q6.28.06,12.55.23c37.85,1.32,75,6,113,9.49q7.37,1,14.74,1.91c38.94,4.56,78.6,5.34,117.92.37-6.5.11-13,.25-19.51.38,6.73-.57,13.47-1.41,20.21-2.57,5.78-.73,11.55-1.61,17.32-2.56,23.06-3.84,46-8.95,68.9-10.35-22.51.58-44.17,4.79-66,8.78-4.38.8-8.76,1.59-13.16,2.33a198.58,198.58,0,0,1-27.32,4.37c-13.35.28-26.73.54-40.12.51-14.18-.77-28.37-2.4-42.49-4.33q-7.84-1.08-15.66-2.26c-44.07-3.82-87.73-10.33-132.33-11.7q-7.28-.09-14.54,0c-14.53.08-29,.63-43.41,1.88l0,1.38c16.36-1.39,32.88-2.12,49.44-2.27,5.52,0,11,0,16.51.06,36.62.37,73.73,7.81,111.32,9.72,4.93.59,9.73,1.28,14.54,1.94,17.94,2.49,36.07,4.68,54.29,5.63-18.11-.09-36.23-.73-54.34-2.63-5-.53-10-1.15-15-1.87-38.14-3.12-76.35-7.77-114.19-9.53q-6.27-.13-12.55-.16a487.11,487.11,0,0,0-50,2.13v1.38A434.24,434.24,0,0,1,150.22,209.53Zm183.5-16.39c-3.65-1.11-7.21-2.31-10.65-3.57.74.35,1.49.68,2.26,1A59.31,59.31,0,0,0,333.72,193.14Zm-83-1.92c2.46.25,4.92.49,7.38.7l3.93.3-4.77-.44Zm-4.4-.37h0Zm244,3.1c1.69-.16,3.39-.32,5.08-.53C493.62,193.57,491.93,193.75,490.25,194ZM437,206.22l-4.26,1.18q-5.25,1.44-10.63,2.78L423,210A137,137,0,0,0,437,206.22Zm32.13-.72a247.88,247.88,0,0,1,26.19-1.86c-10.91-2.78-22.92,0-33.83,1.86-13.81,2.42-27.16,5.74-40.41,8.49l1.21-.2C437.67,211.17,453.17,207.94,469.14,205.5Zm-312-9c42.42,2.53,86.08,9,128.38,12.55,5.54.78,10.87,1.68,16.21,2.55,37.35,6.08,75.1,10.12,111.79,2.33,4.7-.93,9.4-2,14.11-3.16,14.13-3.44,28.3-7.44,42.63-9.88,8.73-.93,16.37-.93,25.1-1.86-6.55-1.86-14.19,0-20.74.93-15.55,1.74-30.64,5.7-45.69,9.33-5,1.21-10,2.38-15.06,3.42-37.7,9.94-75.75,4.27-113.49-2.3-5.39-.94-10.81-1.87-16.52-2.59-34.09-3.22-65.74-5.08-99.58-10.65a95,95,0,0,0-27.14-2q-7,0-14.11.06c-14.15.21-28.33.84-42.59,2l0,1.37c14.27-1.32,28.45-2,42.61-2.12Q150.07,196.39,157.11,196.47Zm250.28,20.16c4.48-.79,8.92-1.65,13.37-2.57l.33-.07c-4.71.8-9.42,1.55-14.18,2.25-27.76,5.64-55.53,4.63-83.32,1.5C351.51,221.58,379.54,223.14,407.39,216.63Zm43.19-15.77A127.36,127.36,0,0,1,437,206.22c17.7-4.94,34.85-10.11,53.24-12.27C476.67,195.16,463.19,195.07,450.58,200.86Zm7.64-5.58c12-4.65,25.11-.93,37.11-6.51-23.65,0-45,9-66.65,16.35-1.31.45-2.62.88-3.93,1.31,1.42-.33,2.84-.68,4.25-1A193.22,193.22,0,0,0,458.22,195.28Zm-300,5.87c41.32,3.42,81.71,8.07,122.7,10.89,5.46.64,10.71,1.42,15.95,2.18,8.91,1.3,17.82,2.52,26.73,3.52-8.41-1.16-16.81-2.51-25.19-3.93-5.17-.86-10.34-1.75-15.69-2.49-27.51-3-54.8-4-83.18-8.61a328.09,328.09,0,0,0-41.32-2.87q-7.25-.14-14.51-.13c-14.52,0-29,.53-43.38,1.87l0,1.37a426.67,426.67,0,0,1,43.39-2Q151,201,158.21,201.15Zm-14.13-12.78c9.61.4,18.34-.53,28.16.4,42.57,6.51,83,11.16,125.44,15.94,5.54,1.11,11,2.23,16.52,3.27,28.79,5.49,57.72,9,87.06,3.57-28,3.42-56.27.51-84.14-4.41q-8.16-1.44-16.3-3.06c-36.89-6-72.91-6.94-111.11-14.38-15.28-2.79-30.56-2.79-45.62-2.83q-7.23,0-14.47.22c-9.65.25-19.31.7-29,1.42l0,1.37q14.55-.93,29-1.27Q136.85,188.43,144.08,188.37Zm3.74,25.2q8-.19,16-.17c39,3.26,79.35,5.12,118.55,9.17q8.26,1.05,16.56,1.89c33.17,3.35,66.63,4,99.79.54,5.44-.45,10.78-.92,16.1-1.45,26.62-2.67,52.8-7.24,79.4-7.82-10.91,0-20.74-.93-31.65,0-11.28,1.55-22.32,3.2-33.26,4.68q-8.2,1.13-16.37,2.07c-38.89,6.5-78.1,5.42-117.2.68q-7.33-.89-14.65-1.94c-39-4.56-79.39-5.49-118.33-8.35q-6.28-.19-12.56-.27a403.07,403.07,0,0,0-50,2.17v1.4C116,215,131.86,214,147.82,213.57Zm276.93-7.14q-4.29,1-8.62,1.81a80.5,80.5,0,0,0,8.25-2.74c19.27-7,38.54-15.37,59.11-19h-5.44c-.43.12-.86.23-1.27.37-13.43,3.91-26.86,8.48-40.33,12.48-4.49,1.33-9,2.6-13.5,3.76a136.49,136.49,0,0,1-41.09,8.38,245.46,245.46,0,0,0,27.92-1.81q-4.27,1-8.52,1.83,7.2-.87,14.39-2.33C418.7,208.36,421.72,207.41,424.75,206.43Zm-42.89,5.1a329.19,329.19,0,0,1-47.52-3.26C350.18,210.91,366.07,212.39,381.86,211.53Zm-72.28-8.17c-8.54-1.57-16.18-4.36-24.91-5.29-29.83-1.7-57.86-6.48-88.19-11.53H179.23c44.32,4.39,88.08,12.93,132.17,18q8.1,1.49,16.23,2.74c2.24.34,4.47.65,6.71,1q-4.27-.72-8.55-1.53C320.38,205.71,315,204.56,309.58,203.36ZM156.16,192.27c45.56,2.08,90.31,10.44,135.73,15.91,5.24,1,10.42,2,15.61,2.9,36.36,6.41,73.37,9.23,109.38.39,1.77-.41,3.5-.86,5.24-1.29-4.37.9-8.77,1.61-13.23,2.19-32.62,6.48-64.92,3.38-96.86-2.27-5.33-.95-10.64-2-16-3-50.68-5.32-100.89-15.55-152-15.65q-7.25.1-14.49.31-14.5.38-29.06,1.09l0,1.37c13.91-1.13,27.83-1.72,41.78-1.91C146.89,192.26,151.54,192.24,156.16,192.27Zm269.38,3-3.31.94c-16.4,3.64-31.68,9.58-49.28,9.45-3.41.11-6.92.09-10.49,0C384.56,206.85,406.79,204.28,425.54,195.32Zm-63.08,10.36c-2.08-.11-4.16-.26-6.24-.43l1.59.2C359.37,205.55,360.92,205.62,362.46,205.68Zm-23.75-2.62q-5.18-.85-10.21-1.9c-.46-.12-.92-.24-1.36-.37-1.09-.23-2.19-.44-3.28-.66l-6.66-1.55c-6.7-1.58-13.43-3.17-20.26-4.57-5-1-10.06-2-15.16-2.75s-10.28-1.35-15.53-1.65c-4.59-.44-9.2-.86-13.82-1.31s-9.25-1-13.88-1.55c-.54-.06-1.07-.14-1.61-.21H232.5l2.51.22q7.38.66,14.77,1.36c4.93.48,9.87,1,14.82,1.53,9.51.92,19.18,2.46,28.94,4.21,4.88.87,9.78,1.81,14.7,2.75,4.15.94,8.34,1.9,12.57,2.83.77.19,1.55.37,2.33.54-1.92-.37-3.83-.74-5.75-1.08-6.51-1.16-13.06-2.09-19.6-2.79q-7.31-1-14.63-1.84c-4.88-.57-9.77-1.11-14.64-1.61-2.18-.13-4.35-.28-6.53-.44,2,.19,4,.38,6,.6,5,.64,10.11,1.38,15.2,2.19s10.22,1.68,15.35,2.57c4.95,1.14,10,2.28,15,3.38s10.16,2.14,15.3,3.06c8.45,1.19,17,2.17,25.58,2.78-8.1-2.53-17.28-3.49-25.14-5.44C332.38,202,335.53,202.59,338.71,203.06Zm107.37-13.93c2.17-.84,4.29-1.72,6.41-2.59h-.71c-3,.85-5.89,1.85-8.8,2.91a180.58,180.58,0,0,1-17.19,5.76l-.25.11,6.55-1.85A90.25,90.25,0,0,0,446.08,189.13ZM338.71,203.06c5.76.94,11.62,1.69,17.51,2.19C350.56,204.53,344.59,203.92,338.71,203.06Zm-75.09-8.25,1.53.06-7.6-.83q-5.22-.45-10.43-1.09c-12.37-1.73-25-4-37.63-6.41h-3.77c15.29,3.65,31.26,5.18,47,7.1C256.41,194,260,194.39,263.62,194.81Zm-17.17-4,4.23.37-3-.32Zm195,4.8,4.29-2.25c-4.16,1.34-8.34,2.63-12.53,4-3.28,1-6.6,1.9-9.93,2.74-4.21,1-8.41,2-12.64,3,3.4-.88,6.75-1.89,10-3.07q2.26-.76,4.5-1.62c-14.46,3.54-28.91,7.63-44,8.86a159.3,159.3,0,0,0,18.16-1.83c-3.19.62-6.41,1.19-9.67,1.73a226.53,226.53,0,0,0,39.27-6.8A96.21,96.21,0,0,0,441.41,195.65ZM372.8,209.51c5.73-.64,11.31-1.44,16.8-2.34a267.59,267.59,0,0,1-49.2-.42c4.74.84,9.45,1.65,14.19,2.44A174.55,174.55,0,0,0,372.8,209.51Zm-18.34-2.71,1.66.55c5.72.37,11.34.47,16.77.29,2.77,0,5.5-.16,8.22-.37A230.81,230.81,0,0,1,354.46,206.8ZM286,197.69c5.28.8,10.57,1.63,15.86,2.45q7.83,1.88,15.73,3.41,11.2,2,22.79,3.2c-5.15-.93-10.33-1.9-15.56-3q-5-1.16-10.06-2.29c-6.76-1.49-13.64-2.85-20.68-3.91-5-.72-10.07-1.34-15.15-1.81q-6.85-.64-13.8-.89l5,.55C275.46,196.12,280.73,196.89,286,197.69Zm168.68-9.37-.35.23c-2.59,1.62-5.67,3.29-8.65,4.85,5.56-1.78,11.07-3.65,16.43-6,.67-.29,1.33-.6,2-.91H452.57a15.56,15.56,0,0,1-4.63,3.36c1.25-.31,2.5-.61,3.76-.9Zm-8.06,2.23c.45-.21.88-.43,1.3-.65a103.1,103.1,0,0,0-11.32,3.41,113.1,113.1,0,0,1-11.49,5.1c1.62-.4,3.23-.79,4.85-1.16C434.28,195.18,441.34,193.08,446.64,190.55Z" transform="translate(-58.03 -50.35)" style="fill:#f1b90e"/></g><g style="opacity:0.49"><path d="M100.2,173a134.82,134.82,0,0,0,27,13.62h2.54a133.93,133.93,0,0,1-29.51-14.82Zm32.19-33.15q-16.21,3.84-32.19,9.18v1.14a361.61,361.61,0,0,1,36.44-10.32ZM111.71,155c-4,.87-7,1.6-7.3,2.07-.14.21.36.63,1.41,1.24a1.38,1.38,0,0,1,.16-.47C106.45,157.06,108.47,156.09,111.71,155Zm39-9.06c-17,3.14-31.39,6.46-39,9.06,6.56-1.41,16-3.18,22-4.79Q142.17,147.92,150.73,145.93Zm-4.91-6.13a360.31,360.31,0,0,0-45.62,12.7v1.06a359,359,0,0,1,49.85-13.76Zm-26.85,0q-9.42,2.47-18.77,5.45v1.2q11.47-3.72,23-6.65Zm40.38,0a356.09,356.09,0,0,0-59.15,16v1a355.59,355.59,0,0,1,63.41-17Zm23.15,0c-10.65,1.62-21.25,3.69-31.77,6.13,12.2-2.25,25.72-4.41,39-6.13Zm-77,0q-2.62.75-5.26,1.54v1.25c3.19-1,6.38-1.9,9.57-2.79Zm122.71,31.26c12-.38,37.5-5.27,37.43-8.09-.06-2.24-26.52-7.33-37.75-6.82-11.07.51-32.42,4.89-32.43,9.5C195.42,169.35,219.34,171.45,228.17,171.06Zm-.3-14.2c9.34,0,33.18,2.91,33.26,6.19.06,3-23.61,7-33,7.31-9.91.37-29.13-1.88-29.57-4.94C198.17,162.56,217.6,157,227.87,156.86Zm177.47,2.33c.08-1.17-43.18-8.23-59.45-10.12-32.53-3.77-66.63-8.36-99.12-9.27H224.83a352.83,352.83,0,0,0-80.39,12.71c-7.78,2.15-22.58,5.92-23.39,9.81-.21,1,.32,2.07,1.36,3.18-3.14-1.2-6-2.33-8.38-3.35a2.1,2.1,0,0,1-.16-1.51c1-3.08,16.66-6.61,24.6-8.77a401.19,401.19,0,0,1,66.26-12.07h-7.3a419.06,419.06,0,0,0-60.73,11.94c-8,2.16-23.66,5.35-24.84,8.31a1.66,1.66,0,0,0,0,1.18,65.48,65.48,0,0,1-6.07-2.93c-.3,1.86,3.63,4.47,10.34,7.41,6.5,4.81,18.66,10.62,25.81,13.2a164.94,164.94,0,0,0,29.46,7.66h4.26A163.93,163.93,0,0,1,139,177.19c-5.85-2.26-14.75-6.49-20.26-10.4,3.7,1.52,8,3.1,12.88,4.69a134.6,134.6,0,0,0,15,6.15,174.15,174.15,0,0,0,45.58,8.94H207.8c-6,0-11.83-.24-17.66-.7-6-1.28-12.17-2.77-18.25-4.39,18.79,3.69,37.48,3.68,57.65,3,32.07-1.22,64.14-6.22,95.53-11.21,16.83-2.67,58.16-8.94,58.63-13.27.31-2.91-42.8-8.92-56-10.43-32.44-3.69-66.77-8.15-98.5-7.53-20.42.41-95.86,8.32-97.55,22-.32,2.63,3.77,5.36,9,7.76-4.23-2.16-6.62-4.64-6.28-7.46,1.57-13.29,73.53-20.7,94.89-21.73,33.45.21,67.37,3.86,100.37,7.84,12.44,1.5,49.23,6.55,48.93,9.72s-36.26,9.75-51.5,12.23c-32,5.19-64.86,10.24-97.48,11.55-13.87.55-51.55-1.59-75.15-7.43-3.78-1.16-7.47-2.33-11-3.51-.94-.39-1.86-.79-2.76-1.21q1,.52,2.19,1c-6.23-2.06-12-4.11-17.11-6-1.61-1.38-2.48-2.73-2.27-4,.73-4.23,17.71-8.66,26.59-11,25.77-6.75,52.45-10.34,79.53-11.59,37.52.34,75.39,4.72,112.44,9,15.81,1.82,58.91,7.55,58.72,10.2-.14,1.79-43,10.36-62.21,13.5-35.68,5.84-72.27,11.81-108.72,13.27-5.92.24-11.66.4-17.31.44H231c37.32-1.55,74.67-7.78,111.12-13.82C361.79,169.5,405.14,162.18,405.34,159.19ZM188,185.69a165.87,165.87,0,0,1-34.26-6.53c-4.3-1.32-10.2-3.32-15.65-5.61A464.19,464.19,0,0,0,188,185.69ZM228.48,174c16.41-.52,58.74-6.84,58.69-11.48,0-3.92-43.79-10-59.08-9.41-12.38.43-47.22,6.44-46.1,13.28C183.05,172.8,215.17,174.47,228.48,174Zm-.38-20.21c15.79,0,53.94,5,54,8.83.05,3.12-37.84,10.37-53.65,10.7-13.4.28-42-1.08-43.33-7.07C183.86,160.64,216.18,154,228.1,153.76Zm-.26,14.32c9.75-.27,19.26-2.36,19.21-4.72s-8.86-4.32-19.42-4.06-19.14,3-18.79,5.43S218.09,168.35,227.84,168.08Zm-.19-8.07c8.79-.22,15.71,1.42,15.75,3.41s-7.36,3.73-15.58,4-15.6-.84-15.87-2.87S218.86,160.23,227.65,160Zm1.12,16.78c20.82-.65,81.89-8.31,82-14.84.1-5.55-63.78-12.45-82.44-11.86-14,.45-61,7.4-59.57,16.39C170.2,175.73,212.26,177.42,228.77,176.79Zm-.42-26c18.14,0,77.08,5.26,77,11.31-.08,5.81-57.4,13.43-76.58,14.07-15.47.52-55.48-.73-56.92-9.62C170.45,157.92,214.37,151.63,228.35,150.75Zm.94,31.29c26.44-.93,53-4.71,78.89-8.79,15.16-2.4,51.54-8.43,51.87-12.58.24-3.1-37.34-8.7-50.3-10.2-26.62-3.09-54.81-6.57-80.84-5.95-15.76.38-86.38,8-85.53,20.62C144.39,180.18,208.69,182.84,229.29,182Zm-.38-36.93c27.56.08,55.45,2.94,82.62,6.3,12.07,1.49,43.23,6.24,43,9.41-.19,3-31,9.23-44.58,11.49-26.39,4.38-53.74,8.17-80.69,9.14-20.06.72-83.12-2.75-83-16.1C146.31,153.52,210,146.06,228.91,145.11Zm.13,34.37c22.79-.74,45.77-3.78,68-7.57,10.86-1.84,38.55-7.25,38.35-10.57-.18-3-25.83-7.41-37.5-8.89-22.75-2.91-47-5.82-69.29-5.22-14,.37-74.45,7.68-72.75,18.71C157.83,178.77,210.11,180.15,229,179.48Zm-.42-31.62c19.84,0,39.82,1.9,59.41,4.19,10.8,1.27,42,5.54,41.8,9.42s-30.31,9.31-42.31,11.22c-19.21,3.05-39,5.63-58.49,6.17-19,.52-67.74-.43-70.17-12.78C156.82,155.71,214.73,148.59,228.62,147.86Zm72.5,38.71h5.3c63.85-8.12,123.56-28.39,188.91-29.8V155.5C429.72,157,370.1,177.89,306,186Zm74.57,0c39.51-6.26,79-12.43,119.64-13v-1.35c-43,.63-84.54,7.62-126.25,14.36Zm-19.89,0C402,178.93,447.69,170,495.33,169.28v-1.34c-49.65.8-97.13,10.65-145.21,18.63Zm44,0c31.54-4.47,63.2-8.23,95.57-8.67v-1.37c-35.15.49-69.42,5-103.62,10Zm-61.36,0C390.51,178,441.52,166,495.33,165.05v-1.33c-55.65,1-108.15,14.15-162,22.85Zm92.56,0c21.28-2.33,42.68-4,64.37-4.3v-1.38c-25.46.33-50.52,2.63-75.44,5.68Zm-37.64-38.12c-21.52-2.9-43-5.9-64.59-8.65h-5.51c23.48,3,46.91,6.4,70.34,9.65,35.24,4.89,66.12,4.85,101.77,3.92V152.1C459.64,153.11,428.63,153.21,393.32,148.45Zm-1.23-6.69-17.2-2h-8.71l26.07,3c35.57,4.17,67.25,3.78,103.08,2.53v-1.25C459.49,145.41,427.69,145.84,392.09,141.76Zm-69.66,44.81c57.79-8.81,113.35-24.55,172.9-25.7v-1.29c-61.34,1.22-118.23,18.27-177.85,27Zm87-46.77H396.06c33.94,3.38,64.86,2.9,99.27,1.63V140.2C465.52,141.3,438.25,141.82,409.41,139.8Zm85.92,46.77v-1.29c-10.65.14-21.24.6-31.79,1.29Zm-102.69-41.4q-21.72-2.7-43.44-5.37h-7c16.9,2.09,33.79,4.27,50.67,6.42,35.44,4.51,66.73,4.26,102.49,3.13V148.1C459.54,149.27,428.13,149.57,392.64,145.17Zm-98.71-5.37c41,3.55,85.18,9,113.11,13-26.72-3.89-66.7-9.3-104.89-13ZM100.2,162.42c15.12,11.82,33.81,19.46,54.31,24.15h3.69c-22-4.64-42.07-12.53-58-25.13Zm0,18.52q5.43,3,11.16,5.63h2.53a141.55,141.55,0,0,1-13.69-6.93Zm0-15.24c12.74,9.53,27.72,16.26,44,20.87h3.05c-17.54-4.67-33.6-11.7-47.07-21.93Zm310.12-9.59c-2.72-.48-5.86-1-9.26-1.52ZM100.2,169.22a133.12,133.12,0,0,0,35.16,17.35h2.69a132.85,132.85,0,0,1-37.85-18.48Zm317.65-14.86c-3.24-.5-6.87-1-10.81-1.59C410.94,153.33,414.56,153.87,417.85,154.36Zm20.7,3.18s-7.84-1.26-20.7-3.18c11.11,1.7,17.79,2.95,17.82,3.37,0,0-96.53,20.38-167.32,28.84h6.55C346.74,178,438.65,158.49,438.55,157.54ZM100.2,176.87a138.9,138.9,0,0,0,19.08,9.7h2.48a136.4,136.4,0,0,1-21.56-11Zm0,8.28c1,.49,1.9,1,2.85,1.42h2.66c-1.86-.88-3.69-1.8-5.51-2.76ZM424,158.38s-5.61-.95-13.64-2.27c5.89,1,9.76,1.92,9.77,2.46,0,0-44.31,10-64.61,13.47C322.25,177.78,288,183.6,254,186.57h6c33.37-3.16,66.62-9,99.12-14.73C379.74,168.23,424,160.08,424,158.38ZM283.27,139.8H271.5c29.68,2.08,59.35,5.68,88.54,9.23,10.23,1.24,27.59,3.5,41,5.56-12.68-2.05-27.73-4.39-37.17-5.55C337.51,145.78,310.21,142.1,283.27,139.8Z" transform="translate(-58.03 -50.35)" style="fill:#f1b90e"/></g><line id="UKAZOVAK" x1="58.42" y1="191.47" x2="106.97" y2="222.37" style="fill:none;stroke:#1d1d1b;stroke-miterlimit:10;opacity:0.34"/><line id="UKAZOVAK-2" data-name="UKAZOVAK" x1="421.32" y1="191.47" x2="372.77" y2="222.37" style="fill:none;stroke:#1d1d1b;stroke-miterlimit:10;opacity:0.34"/><g id="STENY"><rect id="STENA" x="1" y="1" width="477.79" height="40.83" style="fill:#282828;stroke:#1d1d1b;stroke-miterlimit:10;stroke-width:2px"/></g><g id="TEXTY"><path d="M278.22,162.75a2,2,0,0,0-.75-1.65,10,10,0,0,0-2.73-1.21,19.51,19.51,0,0,1-3.12-1.26q-3.14-1.69-3.13-4.56a4.45,4.45,0,0,1,.84-2.66,5.46,5.46,0,0,1,2.41-1.82,9,9,0,0,1,3.53-.66,8.22,8.22,0,0,1,3.51.72,5.51,5.51,0,0,1,2.39,2,5.25,5.25,0,0,1,.85,3h-3.78a2.48,2.48,0,0,0-.8-2,3.24,3.24,0,0,0-2.23-.7,3.49,3.49,0,0,0-2.16.59,1.82,1.82,0,0,0-.77,1.54,1.79,1.79,0,0,0,.9,1.51,10.23,10.23,0,0,0,2.66,1.13,11.57,11.57,0,0,1,4.71,2.42,4.8,4.8,0,0,1,1.47,3.58,4.45,4.45,0,0,1-1.8,3.75,8,8,0,0,1-4.86,1.35,9.52,9.52,0,0,1-3.87-.77,6.15,6.15,0,0,1-2.66-2.13,5.46,5.46,0,0,1-.91-3.13h3.8q0,3,3.64,3a3.53,3.53,0,0,0,2.11-.55A1.79,1.79,0,0,0,278.22,162.75Z" transform="translate(-58.03 -50.35)" style="fill:#1d1d1b"/><path d="M290.35,160.2l-2,2.12v5.25h-3.79V149.18h3.79v8.34l1.66-2.29,4.69-6h4.66l-6.53,8.17,6.72,10.22h-4.51Z" transform="translate(-58.03 -50.35)" style="fill:#1d1d1b"/><path d="M307.81,160.84h-3v6.73H301V149.18h6.84a7.7,7.7,0,0,1,5,1.46,5,5,0,0,1,1.77,4.1,5.68,5.68,0,0,1-.81,3.14,5.62,5.62,0,0,1-2.47,2l4,7.51v.18h-4.07Zm-.89-14.79,1.84-1.8h3.12v.14l-3.82,3.54h-2.31l-3.81-3.57v-.11h3.12Zm-2.13,11.72h3.06a3.14,3.14,0,0,0,2.21-.72,2.63,2.63,0,0,0,.78-2,2.75,2.75,0,0,0-.74-2,3,3,0,0,0-2.26-.75h-3Z" transform="translate(-58.03 -50.35)" style="fill:#1d1d1b"/><path d="M321.54,167.57h-3.79V149.18h3.79Zm-1.18-23.35h4l-3.5,3.92h-3Z" transform="translate(-58.03 -50.35)" style="fill:#1d1d1b"/><path d="M340,167.57h-3.79l-7.37-12.1v12.1h-3.79V149.18h3.79l7.38,12.13V149.18H340Zm-7.42-21.52,1.84-1.8h3.12v.14l-3.82,3.54h-2.31l-3.81-3.57v-.11h3.12Z" transform="translate(-58.03 -50.35)" style="fill:#1d1d1b"/><path d="M275.51,75.78a2,2,0,0,0-.75-1.65A10,10,0,0,0,272,72.92a18.61,18.61,0,0,1-3.12-1.26q-3.14-1.68-3.13-4.56a4.42,4.42,0,0,1,.84-2.65A5.48,5.48,0,0,1,269,62.62a9,9,0,0,1,3.53-.66,8.22,8.22,0,0,1,3.51.72,5.58,5.58,0,0,1,2.39,2,5.26,5.26,0,0,1,.85,3h-3.78a2.5,2.5,0,0,0-.8-2,3.32,3.32,0,0,0-2.24-.7,3.48,3.48,0,0,0-2.15.59,1.85,1.85,0,0,0-.78,1.55,1.79,1.79,0,0,0,.91,1.5,10.55,10.55,0,0,0,2.66,1.14,11.45,11.45,0,0,1,4.71,2.41,4.8,4.8,0,0,1,1.47,3.58,4.44,4.44,0,0,1-1.8,3.75,8,8,0,0,1-4.86,1.36,9.36,9.36,0,0,1-3.87-.78A6.15,6.15,0,0,1,266.12,78a5.43,5.43,0,0,1-.91-3.13H269q0,3,3.64,3a3.53,3.53,0,0,0,2.11-.55A1.77,1.77,0,0,0,275.51,75.78Z" transform="translate(-58.03 -50.35)" style="fill:#fff"/><path d="M295.72,65.29h-5.63V80.6H286.3V65.29h-5.56V62.22h15Z" transform="translate(-58.03 -50.35)" style="fill:#fff"/><path d="M308.94,72.64h-7.27v4.92h8.53v3H297.88V62.22h12.3v3.07h-8.51v4.38h7.27Zm-4.69-13.59,1.85-1.81h3.12v.14l-3.82,3.55h-2.31l-3.81-3.57v-.12h3.12Z" transform="translate(-58.03 -50.35)" style="fill:#fff"/><path d="M327.38,80.6h-3.79l-7.38-12.09V80.6h-3.79V62.22h3.79l7.39,12.12V62.22h3.78Z" transform="translate(-58.03 -50.35)" style="fill:#fff"/><path d="M341.29,76.82h-6.64l-1.26,3.78h-4l6.84-18.38h3.51L346.6,80.6h-4Zm-5.62-3.07h4.6L338,66.86Z" transform="translate(-58.03 -50.35)" style="fill:#fff"/><path d="M135.51,294v-12.8H140a5.84,5.84,0,0,1,3.53.9,3,3,0,0,1,1.21,2.61,2.92,2.92,0,0,1-.49,1.66,2.82,2.82,0,0,1-1.34,1.05,2.69,2.69,0,0,1,1.55,1,2.94,2.94,0,0,1,.57,1.83,3.38,3.38,0,0,1-1.18,2.79,5.27,5.27,0,0,1-3.36,1Zm2.63-7.43h2c1.33,0,2-.56,2-1.6a1.47,1.47,0,0,0-.51-1.25,2.66,2.66,0,0,0-1.59-.38h-1.85Zm0,1.86v3.45h2.26a2.23,2.23,0,0,0,1.46-.44,1.53,1.53,0,0,0,.52-1.23,1.61,1.61,0,0,0-1.82-1.78Z" transform="translate(-58.03 -50.35)"/><path d="M157.51,287.88a7.84,7.84,0,0,1-.67,3.32,5.06,5.06,0,0,1-1.91,2.19,5.27,5.27,0,0,1-2.86.78,5.35,5.35,0,0,1-2.84-.77,5.13,5.13,0,0,1-1.93-2.18,7.41,7.41,0,0,1-.69-3.27v-.63a7.62,7.62,0,0,1,.68-3.33,5,5,0,0,1,1.92-2.2,5.64,5.64,0,0,1,5.69,0,5,5,0,0,1,1.92,2.2,7.61,7.61,0,0,1,.69,3.32Zm-2.68-.58a5.4,5.4,0,0,0-.72-3.06,2.55,2.55,0,0,0-4.1,0,5.29,5.29,0,0,0-.73,3v.62a5.44,5.44,0,0,0,.72,3,2.34,2.34,0,0,0,2.07,1.08,2.3,2.3,0,0,0,2-1,5.3,5.3,0,0,0,.72-3Z" transform="translate(-58.03 -50.35)"/><path d="M169.47,289.73a4.51,4.51,0,0,1-1.53,3.25,5.33,5.33,0,0,1-3.62,1.19,4.83,4.83,0,0,1-3.87-1.66A6.74,6.74,0,0,1,159,288v-.78a7.58,7.58,0,0,1,.66-3.25,4.86,4.86,0,0,1,1.85-2.16,5.25,5.25,0,0,1,2.81-.75,5.17,5.17,0,0,1,3.57,1.19,4.86,4.86,0,0,1,1.56,3.33h-2.63a2.72,2.72,0,0,0-.69-1.8,2.58,2.58,0,0,0-1.81-.56,2.26,2.26,0,0,0-2,.94,5.27,5.27,0,0,0-.67,2.94v1a5.78,5.78,0,0,0,.62,3,2.22,2.22,0,0,0,2,.95,2.61,2.61,0,0,0,1.82-.55,2.56,2.56,0,0,0,.69-1.73Zm-5.14-10.79,1.28-1.25h2.17v.09l-2.65,2.47h-1.61l-2.66-2.48v-.08H163Z" transform="translate(-58.03 -50.35)"/><path d="M181.6,294H179l-5.13-8.42V294H171.2v-12.8h2.64l5.14,8.44v-8.44h2.62Z" transform="translate(-58.03 -50.35)"/><path d="M186.71,294h-2.64v-12.8h2.64Z" transform="translate(-58.03 -50.35)"/><path d="M199.2,289.73a4.54,4.54,0,0,1-1.52,3.25,5.38,5.38,0,0,1-3.63,1.19,4.83,4.83,0,0,1-3.87-1.66,6.79,6.79,0,0,1-1.41-4.55v-.78a7.58,7.58,0,0,1,.65-3.25,4.82,4.82,0,0,1,1.86-2.16,5.8,5.8,0,0,1,6.37.44,4.83,4.83,0,0,1,1.57,3.33h-2.64a2.63,2.63,0,0,0-.69-1.8,2.55,2.55,0,0,0-1.8-.56,2.28,2.28,0,0,0-2,.94,5.36,5.36,0,0,0-.67,2.94v1a5.67,5.67,0,0,0,.63,3,2.21,2.21,0,0,0,2,.95,2.61,2.61,0,0,0,1.82-.55,2.51,2.51,0,0,0,.69-1.73Z" transform="translate(-58.03 -50.35)"/><path d="M208.63,288.45h-5.06v3.42h5.94V294h-8.58v-12.8h8.56v2.14h-5.92v3.05h5.06Z" transform="translate(-58.03 -50.35)"/><path d="M393.41,293.79V281h4.48a5.84,5.84,0,0,1,3.53.89,3.05,3.05,0,0,1,1.2,2.61,2.92,2.92,0,0,1-.48,1.66,2.76,2.76,0,0,1-1.34,1,2.79,2.79,0,0,1,1.55,1,2.94,2.94,0,0,1,.57,1.83,3.41,3.41,0,0,1-1.18,2.8,5.33,5.33,0,0,1-3.36,1Zm2.63-7.43H398c1.33,0,2-.56,2-1.59a1.49,1.49,0,0,0-.51-1.26,2.68,2.68,0,0,0-1.59-.38H396Zm0,1.86v3.46h2.26a2.18,2.18,0,0,0,1.46-.45,1.53,1.53,0,0,0,.52-1.22,1.61,1.61,0,0,0-1.82-1.79Z" transform="translate(-58.03 -50.35)" style="fill:#1d1d1b"/><path d="M415.4,287.69a7.79,7.79,0,0,1-.66,3.31,5.14,5.14,0,0,1-1.91,2.2A5.37,5.37,0,0,1,410,294a5.44,5.44,0,0,1-2.84-.76A5.1,5.1,0,0,1,405.2,291a7.37,7.37,0,0,1-.69-3.26v-.64a7.54,7.54,0,0,1,.68-3.32,5,5,0,0,1,1.92-2.21,5.64,5.64,0,0,1,5.69,0,5,5,0,0,1,1.92,2.21,7.53,7.53,0,0,1,.68,3.31Zm-2.67-.58a5.36,5.36,0,0,0-.72-3.06,2.54,2.54,0,0,0-4.1,0,5.29,5.29,0,0,0-.73,3v.63a5.47,5.47,0,0,0,.72,3,2.52,2.52,0,0,0,4.11,0,5.35,5.35,0,0,0,.72-3Z" transform="translate(-58.03 -50.35)" style="fill:#1d1d1b"/><path d="M427.37,289.53a4.51,4.51,0,0,1-1.53,3.25,5.35,5.35,0,0,1-3.62,1.19,4.83,4.83,0,0,1-3.88-1.66,6.79,6.79,0,0,1-1.41-4.55V287a7.73,7.73,0,0,1,.65-3.25,4.94,4.94,0,0,1,1.86-2.16,5.81,5.81,0,0,1,6.38.44,4.86,4.86,0,0,1,1.56,3.33h-2.63a2.72,2.72,0,0,0-.69-1.8,2.58,2.58,0,0,0-1.81-.56,2.23,2.23,0,0,0-2,.95,5.26,5.26,0,0,0-.67,2.93v1a5.76,5.76,0,0,0,.62,3,2.2,2.2,0,0,0,2,1,2.61,2.61,0,0,0,1.82-.56,2.54,2.54,0,0,0,.69-1.73Zm-5.15-10.78,1.29-1.26h2.17v.1L423,280.06h-1.6l-2.66-2.49v-.08h2.17Z" transform="translate(-58.03 -50.35)" style="fill:#1d1d1b"/><path d="M439.5,293.79h-2.63l-5.14-8.42v8.42H429.1V281h2.63l5.15,8.43V281h2.62Z" transform="translate(-58.03 -50.35)" style="fill:#1d1d1b"/><path d="M444.61,293.79H442V281h2.64Z" transform="translate(-58.03 -50.35)" style="fill:#1d1d1b"/><path d="M457.1,289.53a4.54,4.54,0,0,1-1.52,3.25A5.38,5.38,0,0,1,452,294a4.8,4.8,0,0,1-3.87-1.66,6.79,6.79,0,0,1-1.41-4.55V287a7.58,7.58,0,0,1,.65-3.25,4.82,4.82,0,0,1,1.86-2.16,5.8,5.8,0,0,1,6.37.44,4.83,4.83,0,0,1,1.57,3.33h-2.64a2.63,2.63,0,0,0-.69-1.8A2.56,2.56,0,0,0,452,283a2.25,2.25,0,0,0-2,.95,5.34,5.34,0,0,0-.67,2.93v1a5.66,5.66,0,0,0,.63,3,2.2,2.2,0,0,0,2,1,2.61,2.61,0,0,0,1.82-.56,2.54,2.54,0,0,0,.69-1.73Z" transform="translate(-58.03 -50.35)" style="fill:#1d1d1b"/><path d="M466.53,288.25h-5.06v3.43h5.94v2.11h-8.58V281h8.56v2.13h-5.92v3.05h5.06Z" transform="translate(-58.03 -50.35)" style="fill:#1d1d1b"/></g><rect id="BOČNICA" x="41.84" y="41.86" width="6.62" height="158.11" style="fill:#fff;stroke:#1d1d1b;stroke-miterlimit:10;stroke-width:2px"/><rect id="BOČNICA-2" data-name="BOČNICA" x="431.35" y="41.84" width="6.62" height="158.14" style="fill:#fff;stroke:#1d1d1b;stroke-miterlimit:10;stroke-width:2px"/></svg>