<svg xmlns="http://www.w3.org/2000/svg" version="1.1" xmlns:xlink="http://www.w3.org/1999/xlink" width="512" height="512" x="0" y="0" viewBox="0 0 24 24" style="enable-background:new 0 0 512 512" xml:space="preserve" class=""><g><g fill="#000" fill-rule="evenodd" clip-rule="evenodd"><path d="M21 21.5a.5.5 0 0 0 .5-.5V3a.5.5 0 0 0-.5-.5H3a.5.5 0 0 0-.5.5v18a.5.5 0 0 0 .5.5zm-.5-1h-17v-17h17z" fill="#ffffff" opacity="1" data-original="#000000"></path><path d="M21 21.5a.5.5 0 0 0 .5-.5V3a.5.5 0 0 0-.5-.5h-5a.5.5 0 0 0-.5.5v18a.5.5 0 0 0 .5.5zm-.5-1h-4v-17h4z" fill="#ffffff" opacity="1" data-original="#000000"></path></g></g></svg>