<?xml version="1.0" encoding="utf-8"?>
<!-- Generator: Adobe Illustrator 26.0.0, SVG Export Plug-In . SVG Version: 6.00 Build 0)  -->
<svg version="1.1" id="_x32_" xmlns="http://www.w3.org/2000/svg" xmlns:xlink="http://www.w3.org/1999/xlink" x="0px" y="0px"
	 viewBox="0 0 800 800" style="enable-background:new 0 0 800 800;" xml:space="preserve">
<style type="text/css">
	.st0{fill:#FFFFFF;}
	.st1{fill:#507C5C;}
	.st2{font-family:'Impact';}
	.st3{font-size:400px;}
</style>
<g>
	<circle class="st0" cx="400" cy="400" r="345"/>
	<path class="st1" d="M400,0C179.1,0,0,179.1,0,400c0,220.9,179.1,400,400,400s400-179.1,400-400C800,179.1,620.9,0,400,0z M400,700
		c-165.4,0-300-134.6-300-300c0-165.4,134.6-300,300-300c165.4,0,300,134.6,300,300C700,565.4,565.4,700,400,700z"/>
	<text transform="matrix(1 0 0 1 196.001 562.0872)" class="st1 st2 st3">Kč</text>
</g>
</svg>
