<?xml version="1.0" encoding="utf-8"?>
<!-- Generator: Adobe Illustrator 26.0.0, SVG Export Plug-In . SVG Version: 6.00 Build 0)  -->
<svg version="1.1" id="Vrstva_1" xmlns="http://www.w3.org/2000/svg" xmlns:xlink="http://www.w3.org/1999/xlink" x="0px" y="0px"
	 viewBox="0 0 800 800" style="enable-background:new 0 0 800 800;" xml:space="preserve">
<style type="text/css">
	.st0{fill-rule:evenodd;clip-rule:evenodd;}
	.st1{fill-rule:evenodd;clip-rule:evenodd;fill:#D61616;}
</style>
<path class="st0" d="M78.3,0h643.2c15.1,0,27.4,12.3,27.4,27.4v745.2c-0.1,15.1-12.3,27.3-27.4,27.4H78.3
	c-15.1-0.1-27.3-12.3-27.4-27.4V27.4C51,12.3,63.2,0.1,78.3,0z M500.1,525.2c5.5-3.5,12.7-1.9,16.2,3.6c3.2,5,2.1,11.5-2.4,15.3
	l-31.7,23.4c-5.5,3.5-12.7,1.9-16.2-3.6c-3.2-5-2.1-11.5,2.4-15.3L500.1,525.2z M624.6,421c4.7-4.4,12.2-4.1,16.6,0.6
	c4.4,4.7,4.1,12.2-0.6,16.6c-0.2,0.2-0.5,0.4-0.8,0.6L545.1,519c-4.4,4.7-11.8,5-16.6,0.6c-4.7-4.4-5-11.8-0.6-16.6
	c0.6-0.7,1.3-1.3,2.1-1.8l94.6-80.4L624.6,421z M630.3,513.8c5-4.1,12.4-3.4,16.5,1.6c4.1,5,3.4,12.4-1.6,16.5l0,0l-149,121.7
	c-5,4.1-12.3,3.3-16.4-1.7c-4.1-5-3.3-12.3,1.7-16.4L630.3,513.8z M293,277c-5.1,4-12.5,3.1-16.5-2c-4-5.1-3.1-12.5,2-16.5
	c0.2-0.2,0.4-0.3,0.6-0.4l31.7-23.4c5.3-3.7,12.6-2.5,16.3,2.8c3.7,5.3,2.5,12.6-2.8,16.3l0,0l-31.6,23.4L293,277z M168.4,381.2
	c-4.6,4.5-12,4.5-16.6-0.2c-4.5-4.6-4.5-12,0.2-16.6c0.4-0.4,0.8-0.8,1.3-1.1l94.6-80.1c5.2-3.8,12.6-2.7,16.4,2.6
	c3.4,4.7,2.9,11.2-1.3,15.3l-94.6,80.3L168.4,381.2z M162.4,288.4c-5,4.1-12.3,3.3-16.4-1.7c-4.1-5-3.3-12.3,1.7-16.4l149-121.7
	c4.8-4.3,12.2-3.8,16.5,1c4.3,4.8,3.8,12.2-1,16.5c-0.3,0.2-0.5,0.4-0.8,0.7L162.4,288.4z M105.4,54h267.8v692.1H105.4V53.8
	L105.4,54z M426.8,54h267.8v692.1H426.8V53.8V54z"/>
<rect x="361.1" y="83.1" transform="matrix(0.7071 -0.7071 0.7071 0.7071 -165.6125 390.3432)" class="st1" width="54.5" height="624"/>
<rect x="371" y="92.9" transform="matrix(0.7071 0.7071 -0.7071 0.7071 402.9529 -162.9815)" class="st1" width="54.5" height="624"/>
</svg>
