<svg xmlns="http://www.w3.org/2000/svg" version="1.1" xmlns:xlink="http://www.w3.org/1999/xlink" width="512" height="512" x="0" y="0" viewBox="0 0 24 24" style="enable-background:new 0 0 512 512" xml:space="preserve" class=""><g><path d="M4.5 3a.502.502 0 0 1-.354-.146L2.5 1.207.854 2.854a.5.5 0 0 1-.707-.707l2-2a.5.5 0 0 1 .707 0l2 2A.5.5 0 0 1 4.5 3zM21.5 24a.5.5 0 0 1-.354-.853l1.646-1.646-1.646-1.646a.5.5 0 0 1 .707-.707l2 2a.5.5 0 0 1 0 .707l-2 2A.501.501 0 0 1 21.5 24z" fill="#ffffff" opacity="1" data-original="#000000" class=""></path><path d="M2.5 24a.5.5 0 0 1-.5-.5V.75a.5.5 0 0 1 1 0V23.5a.5.5 0 0 1-.5.5z" fill="#ffffff" opacity="1" data-original="#000000" class=""></path><path d="M23.25 22H.5a.5.5 0 0 1 0-1h22.75a.5.5 0 0 1 0 1zM13 10a.507.507 0 0 1-.18-.033l-6.5-2.5a.5.5 0 0 1 0-.934l6.5-2.5a.505.505 0 0 1 .359 0l6.5 2.5a.5.5 0 0 1 .001.934l-6.5 2.5A.507.507 0 0 1 13 10zM7.893 7 13 8.964 18.107 7 13 5.036z" fill="#ffffff" opacity="1" data-original="#000000" class=""></path><path d="M13 18a.507.507 0 0 1-.18-.033l-6.5-2.5A.5.5 0 0 1 6 15V7a.5.5 0 0 1 1 0v7.657l6 2.308 6-2.308V7a.5.5 0 0 1 1 0v8a.5.5 0 0 1-.32.467l-6.5 2.5A.507.507 0 0 1 13 18z" fill="#ffffff" opacity="1" data-original="#000000" class=""></path><path d="M13 18a.5.5 0 0 1-.5-.5v-8a.5.5 0 0 1 1 0v8a.5.5 0 0 1-.5.5z" fill="#ffffff" opacity="1" data-original="#000000" class=""></path></g></svg>