<svg xmlns="http://www.w3.org/2000/svg" version="1.1" xmlns:xlink="http://www.w3.org/1999/xlink" width="512" height="512" x="0" y="0" viewBox="0 0 16 16" style="enable-background:new 0 0 512 512" xml:space="preserve"><g><path d="M14 .125H2A.375.375 0 0 0 1.625.5v15c0 .207.168.375.375.375h12a.375.375 0 0 0 .375-.375V.5A.375.375 0 0 0 14 .125zM2.375.875h3.25v14.25h-3.25zm11.25 14.25h-7.25V.875h7.25z" fill="#ffffff" opacity="1" data-original="#000000"></path><path d="M8 8.375h2.095l-.86.86a.375.375 0 1 0 .53.53l1.5-1.5a.375.375 0 0 0 0-.53l-1.5-1.5a.375.375 0 1 0-.53.53l.86.86H8a.375.375 0 0 0 0 .75z" fill="#ffffff" opacity="1" data-original="#000000"></path></g></svg>