<svg xmlns="http://www.w3.org/2000/svg" version="1.1" xmlns:xlink="http://www.w3.org/1999/xlink" width="512" height="512" x="0" y="0" viewBox="0 0 24 24" style="enable-background:new 0 0 512 512" xml:space="preserve" class=""><g><path d="M22.5 6h-21C.673 6 0 5.327 0 4.5v-3C0 .673.673 0 1.5 0h21c.827 0 1.5.673 1.5 1.5v3c0 .827-.673 1.5-1.5 1.5zm-21-5a.5.5 0 0 0-.5.5v3a.5.5 0 0 0 .5.5h21a.5.5 0 0 0 .5-.5v-3a.5.5 0 0 0-.5-.5zM22.5 15h-21C.673 15 0 14.327 0 13.5v-3C0 9.673.673 9 1.5 9h21c.827 0 1.5.673 1.5 1.5v3c0 .827-.673 1.5-1.5 1.5zm-21-5a.5.5 0 0 0-.5.5v3a.5.5 0 0 0 .5.5h21a.5.5 0 0 0 .5-.5v-3a.5.5 0 0 0-.5-.5zM22.5 24h-8c-.827 0-1.5-.673-1.5-1.5v-3c0-.827.673-1.5 1.5-1.5h8c.827 0 1.5.673 1.5 1.5v3c0 .827-.673 1.5-1.5 1.5zm-8-5a.5.5 0 0 0-.5.5v3a.5.5 0 0 0 .5.5h8a.5.5 0 0 0 .5-.5v-3a.5.5 0 0 0-.5-.5zM9.5 24h-8C.673 24 0 23.327 0 22.5v-3c0-.827.673-1.5 1.5-1.5h8c.827 0 1.5.673 1.5 1.5v3c0 .827-.673 1.5-1.5 1.5zm-8-5a.5.5 0 0 0-.5.5v3a.5.5 0 0 0 .5.5h8a.5.5 0 0 0 .5-.5v-3a.5.5 0 0 0-.5-.5z" fill="#ffffff" opacity="1" data-original="#000000" class=""></path></g></svg>