<svg xmlns="http://www.w3.org/2000/svg" width="166.38mm" height="35.28mm" viewBox="0 0 471.62 100"><g id="Vrstva_2" data-name="Vrstva 2"><g id="Vrstva_1-2" data-name="Vrstva 1"><g id="Logo"><circle id="Bodka" cx="456.62" cy="75" r="15" style="fill:#f1b912"/><path id="E" d="M422.09,50a25,25,0,1,1-12.73-21.78L391.31,46.28l10.6,10.6,17.72-17.72h0l2.65-2.64L428.76,30h0l1.85-1.86A40,40,0,1,0,437.09,50Z"/><path id="P" d="M312.57,10a40,40,0,0,0-40,40v50h15V81.22a40,40,0,1,0,25-71.22Zm0,65a25,25,0,0,1-25-25v0h0a25,25,0,1,1,25,25Z"/><path id="O" d="M124,10a40,40,0,1,0,40,40A40,40,0,0,0,124,10Zm0,65a25,25,0,1,1,25-25A25,25,0,0,1,124,75Z"/><rect id="L" x="168.52" width="15" height="90"/><path id="O-2" data-name="O" d="M228,10a40,40,0,1,0,40,40A40,40,0,0,0,228,10Zm0,65a25,25,0,1,1,25-25A25,25,0,0,1,228,75Z"/><path id="D" d="M80,50V0H65V18.78A40,40,0,1,0,80,50ZM40,75A25,25,0,1,1,65,50v0h0A25,25,0,0,1,40,75Z"/></g></g></g></svg>