<?xml version="1.0" encoding="utf-8"?>
<!-- Generator: Adobe Illustrator 26.0.0, SVG Export Plug-In . SVG Version: 6.00 Build 0)  -->
<svg version="1.1"
	 id="svg2" xmlns:inkscape="http://www.inkscape.org/namespaces/inkscape" xmlns:sodipodi="http://sodipodi.sourceforge.net/DTD/sodipodi-0.dtd" xmlns:svg="http://www.w3.org/2000/svg"
	 xmlns="http://www.w3.org/2000/svg" xmlns:xlink="http://www.w3.org/1999/xlink" x="0px" y="0px" viewBox="0 0 287 78.2"
	 style="enable-background:new 0 0 287 78.2;" xml:space="preserve">
<style type="text/css">
	.st0{fill:#DA1737;}
	.st1{fill:#231F20;}
	.st2{fill-rule:evenodd;clip-rule:evenodd;fill:#231F20;}
</style>
<sodipodi:namedview  bordercolor="#666666" borderopacity="1.0" id="namedview4" inkscape:pagecheckerboard="0" inkscape:pageopacity="0.0" inkscape:pageshadow="2" pagecolor="#ffffff">
	</sodipodi:namedview>
<g id="g8" transform="matrix(1.3333333,0,0,-1.3333333,0,78.235998)" inkscape:groupmode="layer" inkscape:label="ink_ext_XXXXXX">
	<g id="g10" transform="scale(0.1)">
		<path id="path12" class="st0" d="M314.1,586.8h1090.8V476.2H314.1V586.8L314.1,586.8L314.1,586.8L314.1,586.8"/>
		<path id="path14" class="st1" d="M314.1,363.2V260.8h194.2c0,0,0.1,19.8,0.1,21.8c0,2-1.3,2.8-2.8,2.8c-1.5,0.1-127.2,0-127.2,0
			l0,36.6h110.3c0,0,0,19.7,0,21.5c0,1.8-1,2.9-2.9,2.9c-1.8,0-107.4,0-107.4,0v37.4h130c0,0,0,19.8,0,21.8c0,2-1.3,2.6-2.8,2.6
			c-1.5,0-146.7,0-146.7,0C334,408.2,314.1,388,314.1,363.2L314.1,363.2L314.1,363.2L314.1,363.2"/>
		<path id="path16" class="st1" d="M579.4,408.2c0,0,146.5,0,148.3,0c1.8,0,2.9-0.7,2.9-2.6c0-1.8,0-21.7,0-21.7H598.7v-96.2h106.5
			V322h-65.8c0,0,0,20,0,21.5c0,1.5,1.1,2.8,3,2.8c16.5,0,84,0,85.4,0c1.5,0,2.9-1.3,2.9-2.9c0-1.6,0-82.7,0-82.7h-196v102.4
			C534.6,388,554.6,408.2,579.4,408.2L579.4,408.2L579.4,408.2L579.4,408.2"/>
		<path id="path18" class="st1" d="M805.1,408.2c0,0,146.5,0,148.3,0c1.8,0,2.9-0.7,2.9-2.6c0-1.8,0-21.7,0-21.7H824.4l0-96.2h106.5
			V322h-65.8c0,0,0,20,0,21.5c0,1.5,1,2.8,2.9,2.8c16.5,0,84.1,0,85.4,0c1.5,0,2.9-1.3,2.9-2.9c0-1.6,0-82.7,0-82.7h-196v102.4
			C760.3,388,780.4,408.2,805.1,408.2L805.1,408.2L805.1,408.2L805.1,408.2"/>
		<path id="path20" class="st1" d="M986.2,363.2V260.8h194.3c0,0,0,19.8,0,21.8c0,2-1.3,2.8-2.8,2.8c-1.5,0.1-127.2,0-127.2,0
			l0,36.6h110.3c0,0,0,19.7,0,21.5c0,1.8-1,2.9-2.8,2.9c-1.8,0-107.4,0-107.4,0v37.4h130c0,0,0,19.8,0,21.8c0,2-1.3,2.6-2.8,2.6
			c-1.5,0-146.7,0-146.7,0C1006.1,408.2,986.2,388,986.2,363.2L986.2,363.2L986.2,363.2L986.2,363.2"/>
		<path id="path22" class="st0" d="M0,408.2h213.9v-27.5H100.3v-32.2h113.6v-28.4H100.8v-32h113.1v-27.4L0,260.8V408.2L0,408.2
			L0,408.2"/>
		<path id="path24" class="st2" d="M1366.1,408.2c21.4,0,38.7-21.6,38.7-43.1c0-21.5-17.4-43.1-38.8-43.1h-17.4l66-56
			c0,0,6.5-5.2-0.4-5.2c-3.7,0-57.4,0-70.2,0c-2.9-0.1-4.3,1.7-7.2,4.1c2.3-1.6-66,57.2-66,57.2v-61.2h-64.1v102.4
			c0,24.8,19.9,45,44.7,45L1366.1,408.2L1366.1,408.2z M1357.3,346.3c6.8,0,16.6,7.1,16.6,18.8c0,13-9.2,18.7-16.6,18.7h-86.6v-37.5
			L1357.3,346.3L1357.3,346.3L1357.3,346.3"/>
	</g>
</g>
</svg>
