<?xml version="1.0" encoding="UTF-8"?>
<svg xmlns="http://www.w3.org/2000/svg" xmlns:xlink="http://www.w3.org/1999/xlink" viewBox="0 0 430.14 228.01">
  <defs>
    <style>
      .cls-1 {
        fill: #c91f1f;
      }

      .cls-2 {
        fill: #ba6315;
      }

      .cls-3 {
        isolation: isolate;
      }

      .cls-4 {
        fill: #e28e33;
      }

      .cls-5 {
        fill: #f1b90d;
      }

      .cls-6 {
        fill: #dda814;
      }

      .cls-7 {
        fill: #d04642;
      }

      .cls-8 {
        fill: #e02828;
      }

      .cls-9 {
        fill: #ed3e3e;
      }

      .cls-10 {
        fill: #181818;
      }

      .cls-11 {
        fill: #eac71b;
      }

      .cls-12 {
        clip-path: url(#clippath);
      }

      .cls-13 {
        fill: none;
      }

      .cls-14 {
        fill: #ef9c56;
      }

      .cls-15 {
        fill: #b7b7b7;
        mix-blend-mode: multiply;
        opacity: .42;
      }

      .cls-16 {
        fill: #666;
      }
    </style>
    <clipPath id="clippath">
      <path class="cls-13" d="m78.81,80.03c-1.77-1.59-4.09-2.44-6.46-2.26-.04,0-.07,0-.11,0-3.74.31-4.9-5.39.07-6.56,4.97-1.17,10.77,1.52,12.23,5.54,1.28,3.52-2.3,6.36-5.74,3.27Z"/>
    </clipPath>
  </defs>
  <g class="cls-3">
    <g id="OBJECTS">
      <ellipse class="cls-15" cx="67.03" cy="178.93" rx="37.51" ry="7.73"/>
      <path class="cls-15" d="m414.17,174.96c0,4.27-16.79,7.73-37.5,7.73s-37.51-3.46-37.51-7.73,16.79-7.73,37.51-7.73,37.5,3.46,37.5,7.73Z"/>
      <g>
        <path d="m95.99,148.89v-17.76l34.28-50.91h15.16v21.66h-8.31l-19.57,29.36v.28h51.08v17.36h-72.63Zm41.18,15.61v-21.04l.11-7.81v-55.43h21.89v84.28h-22Z"/>
        <path d="m212.28,165.8c-7.81,0-14.48-1.74-20.02-5.23s-9.79-8.47-12.75-14.93c-2.96-6.47-4.44-14.21-4.44-23.22s1.48-16.77,4.44-23.28c2.96-6.5,7.21-11.5,12.75-14.99,5.54-3.49,12.22-5.23,20.02-5.23s14.48,1.74,20.02,5.23c5.54,3.49,9.79,8.48,12.76,14.99,2.96,6.5,4.44,14.26,4.44,23.28s-1.48,16.76-4.44,23.25c-2.96,6.49-7.21,11.46-12.76,14.93s-12.22,5.2-20.02,5.2Zm0-18.21c3.05,0,5.68-1,7.86-3,2.19-2,3.86-4.88,5.03-8.65,1.17-3.77,1.75-8.28,1.75-13.52s-.59-9.8-1.75-13.58c-1.17-3.77-2.85-6.67-5.03-8.71-2.19-2.04-4.81-3.05-7.86-3.05s-5.68,1.02-7.89,3.05c-2.21,2.04-3.89,4.94-5.06,8.71-1.17,3.77-1.75,8.3-1.75,13.58s.58,9.75,1.75,13.52c1.17,3.77,2.86,6.66,5.06,8.65,2.21,2,4.84,3,7.89,3Z"/>
        <path d="m255.95,148.89v-17.76l34.28-50.91h15.16v21.66h-8.31l-19.57,29.36v.28h51.08v17.36h-72.63Zm41.18,15.61v-21.04l.11-7.81v-55.43h21.89v84.28h-22Z"/>
      </g>
      <g>
        <path class="cls-16" d="m174.68,51.15v-17.74h4.26v6.91h6.82v-6.91h4.26v17.74h-4.26v-7.24h-6.82v7.24h-4.26Z"/>
        <path class="cls-16" d="m199.89,51.42c-1.51,0-2.82-.27-3.94-.82-1.12-.54-1.99-1.31-2.61-2.29-.62-.98-.93-2.12-.93-3.42v-11.49h4.18v11.13c0,.63.14,1.18.42,1.67.28.48.66.87,1.16,1.14.49.28,1.07.42,1.73.42s1.23-.14,1.73-.42c.49-.28.88-.66,1.15-1.14.27-.48.41-1.04.41-1.67v-11.13h4.18v11.49c0,1.3-.31,2.44-.93,3.42-.62.98-1.49,1.74-2.61,2.29-1.12.54-2.43.82-3.93.82Z"/>
        <path class="cls-16" d="m209.74,51.15v-17.74h7.25c1.37,0,2.54.25,3.54.74s1.76,1.19,2.3,2.1c.54.9.81,1.96.81,3.19s-.27,2.28-.82,3.19c-.54.9-1.31,1.6-2.31,2.09-1,.49-2.19.74-3.56.74h-4.74v-3.5h4.36c.59,0,1.1-.1,1.53-.31.42-.21.75-.5.98-.88s.34-.82.34-1.33-.11-.96-.34-1.33c-.23-.37-.55-.66-.98-.86-.43-.2-.94-.3-1.53-.3h-2.56v14.22h-4.26Z"/>
        <path class="cls-16" d="m232.4,51.42c-1.55,0-2.87-.24-3.98-.71s-1.95-1.17-2.53-2.08c-.58-.91-.88-2.03-.89-3.35h4.07c.02.56.17,1.05.45,1.45.28.4.66.71,1.16.92.49.21,1.07.32,1.74.32.6,0,1.12-.08,1.57-.24.44-.16.78-.38,1.03-.67.25-.29.37-.62.37-1.01,0-.34-.11-.63-.32-.88-.21-.25-.54-.46-.98-.65-.44-.19-1.02-.35-1.71-.49l-1.82-.39c-1.69-.35-2.98-.94-3.86-1.78-.88-.84-1.32-1.91-1.32-3.21,0-1.1.29-2.07.88-2.89.59-.83,1.4-1.47,2.45-1.93,1.05-.46,2.26-.69,3.63-.69s2.62.23,3.64.7c1.02.46,1.82,1.13,2.39,1.98.57.86.87,1.88.9,3.07h-3.99c-.06-.71-.34-1.28-.86-1.69-.52-.41-1.2-.61-2.05-.61-.53,0-1,.08-1.41.23s-.72.37-.95.65c-.22.28-.33.6-.33.95s.1.63.3.86c.2.23.51.44.92.61s.95.33,1.59.46l1.56.32c.95.19,1.78.44,2.48.74.7.3,1.28.66,1.74,1.08.46.42.8.9,1.02,1.45.22.55.33,1.17.33,1.86,0,1.18-.29,2.18-.86,3.02s-1.4,1.48-2.48,1.92c-1.08.44-2.38.67-3.89.67Z"/>
        <path class="cls-16" d="m248.79,51.37c-.62,0-1.15-.22-1.58-.65s-.66-.96-.66-1.59.22-1.15.66-1.58c.44-.43.96-.65,1.58-.65s1.16.22,1.59.65c.43.43.65.96.65,1.58s-.22,1.16-.65,1.59-.96.65-1.59.65Z"/>
        <path class="cls-16" d="m255.53,51.37c-.62,0-1.15-.22-1.58-.65s-.66-.96-.66-1.59.22-1.15.66-1.58c.44-.43.96-.65,1.58-.65s1.16.22,1.59.65c.43.43.65.96.65,1.58s-.22,1.16-.65,1.59-.96.65-1.59.65Z"/>
        <path class="cls-16" d="m262.27,51.37c-.62,0-1.15-.22-1.58-.65s-.66-.96-.66-1.59.22-1.15.66-1.58c.44-.43.96-.65,1.58-.65s1.16.22,1.59.65c.43.43.65.96.65,1.58s-.22,1.16-.65,1.59-.96.65-1.59.65Z"/>
      </g>
      <g>
        <path class="cls-16" d="m79.65,219.95c-1.44,0-2.68-.24-3.72-.71-1.04-.47-1.85-1.15-2.41-2.04s-.85-1.95-.86-3.19h3.1c.02.69.18,1.28.51,1.77.32.49.77.86,1.35,1.12s1.26.39,2.05.39c.74,0,1.38-.1,1.92-.32.54-.21.97-.51,1.27-.89.31-.39.46-.84.46-1.35,0-.43-.12-.8-.35-1.11-.23-.31-.59-.58-1.07-.8-.48-.23-1.1-.43-1.86-.6l-1.93-.45c-1.71-.4-2.98-.99-3.82-1.78-.84-.79-1.26-1.81-1.26-3.05,0-1.06.27-1.99.82-2.77.55-.79,1.31-1.4,2.29-1.84.98-.44,2.11-.66,3.4-.66s2.44.23,3.41.68,1.71,1.09,2.24,1.92c.54.83.82,1.81.85,2.94h-3.01c-.06-.9-.41-1.6-1.04-2.11-.63-.51-1.45-.76-2.48-.76-.65,0-1.23.11-1.73.32-.5.21-.9.5-1.18.86-.28.37-.42.79-.42,1.26,0,.42.12.78.36,1.08.24.3.59.55,1.07.76.47.21,1.06.4,1.77.57l1.76.42c.87.2,1.63.44,2.29.73.66.29,1.21.64,1.66,1.04.45.4.79.87,1.02,1.41.23.53.35,1.13.35,1.81,0,1.09-.27,2.04-.82,2.85-.55.81-1.33,1.44-2.35,1.88s-2.23.66-3.64.66Z"/>
        <path class="cls-16" d="m87.69,204.64v-2.72h14.17v2.72h-5.5v15.03h-3.17v-15.03h-5.5Z"/>
        <path class="cls-16" d="m104.04,219.67v-17.74h6.87c1.31,0,2.44.23,3.38.7.94.46,1.67,1.12,2.17,1.97.5.85.76,1.85.76,3s-.26,2.15-.79,2.98c-.53.84-1.28,1.48-2.24,1.94-.97.46-2.12.68-3.44.68h-4.85v-2.61h4.78c.73,0,1.35-.12,1.86-.36.51-.24.9-.59,1.16-1.04.27-.45.4-.98.4-1.6s-.14-1.15-.4-1.6c-.27-.45-.66-.79-1.17-1.04-.51-.25-1.13-.37-1.86-.37h-3.45v15.08h-3.17Zm10.11,0l-4.17-8.01h3.39l4.25,8.01h-3.48Z"/>
        <path class="cls-16" d="m118.51,219.67l6.3-17.74h3.98l6.31,17.74h-3.47l-3.12-9.3c-.31-.98-.63-2.03-.97-3.16-.34-1.13-.72-2.45-1.16-3.96h.83c-.43,1.52-.81,2.84-1.15,3.96-.34,1.13-.67,2.18-.99,3.16l-3.16,9.3h-3.41Zm3.73-4.28v-2.58h9.15v2.58h-9.15Zm3.37-15.06l1.87-3.67h3.05l-2.7,3.67h-2.21Z"/>
        <path class="cls-16" d="m136.89,219.67v-17.74h3.44l6.22,9.87c.19.29.42.67.69,1.14.27.46.55.97.84,1.51.29.54.58,1.08.86,1.63l-.35.6c-.03-.53-.06-1.13-.09-1.8-.03-.67-.05-1.3-.06-1.91-.01-.61-.02-1.09-.02-1.45v-9.59h3.17v17.74h-3.45l-5.6-8.88c-.23-.37-.5-.83-.82-1.36-.32-.53-.67-1.14-1.06-1.83-.39-.69-.81-1.45-1.26-2.27l.49-.36c.05.88.09,1.7.11,2.46s.05,1.42.06,1.99c.01.57.02,1.02.02,1.36v8.9h-3.18Z"/>
        <path class="cls-16" d="m154.66,219.67v-17.74h3.17v9.56s0,1.52,0,1.52v6.66h-3.17Zm2.26-4.2v-3.75c.4-.52.81-1.02,1.2-1.51s.8-.97,1.21-1.46c.41-.48.84-.98,1.27-1.49l4.69-5.33h3.89l-7.51,8.47-.24-.02-4.52,5.1Zm8.72,4.2l-5.69-8.38,1.93-2.42,7.45,10.8h-3.69Z"/>
        <path class="cls-16" d="m178.29,219.95c-1.44,0-2.71-.27-3.78-.82s-1.91-1.3-2.51-2.27c-.6-.96-.89-2.07-.89-3.33v-11.61h3.12v11.35c0,.75.17,1.42.5,2.01.33.58.8,1.04,1.41,1.38s1.32.5,2.15.5,1.55-.17,2.16-.5,1.07-.79,1.41-1.38c.33-.58.5-1.25.5-2.01v-11.35h3.12v11.61c0,1.25-.3,2.36-.89,3.33-.6.96-1.43,1.72-2.51,2.27s-2.34.82-3.78.82Z"/>
        <path class="cls-16" d="m199.06,219.92c-1.71,0-3.08-.48-4.11-1.43-1.02-.95-1.54-2.31-1.54-4.08v-1.08h3.06v1.11c0,.91.23,1.61.7,2.09s1.09.72,1.86.72,1.4-.24,1.86-.72c.46-.48.7-1.18.7-2.09v-12.5h3.16v12.52c0,1.76-.51,3.12-1.54,4.06-1.03.95-2.41,1.42-4.15,1.42Z"/>
        <path class="cls-16" d="m214.17,219.95c-1.44,0-2.68-.24-3.72-.71-1.04-.47-1.85-1.15-2.41-2.04s-.85-1.95-.86-3.19h3.1c.02.69.18,1.28.51,1.77.32.49.77.86,1.35,1.12s1.26.39,2.05.39c.74,0,1.38-.1,1.92-.32.54-.21.97-.51,1.27-.89.31-.39.46-.84.46-1.35,0-.43-.12-.8-.35-1.11s-.59-.58-1.07-.8c-.48-.23-1.1-.43-1.86-.6l-1.93-.45c-1.71-.4-2.98-.99-3.82-1.78-.84-.79-1.26-1.81-1.26-3.05,0-1.06.27-1.99.82-2.77.55-.79,1.31-1.4,2.29-1.84.98-.44,2.11-.66,3.4-.66s2.45.23,3.41.68c.96.45,1.71,1.09,2.24,1.92.54.83.82,1.81.85,2.94h-3.01c-.06-.9-.41-1.6-1.04-2.11s-1.45-.76-2.48-.76c-.65,0-1.23.11-1.73.32-.5.21-.9.5-1.18.86-.28.37-.42.79-.42,1.26,0,.42.12.78.36,1.08.24.3.59.55,1.07.76.47.21,1.06.4,1.77.57l1.76.42c.87.2,1.63.44,2.29.73.66.29,1.21.64,1.66,1.04.45.4.79.87,1.02,1.41.23.53.35,1.13.35,1.81,0,1.09-.27,2.04-.82,2.85-.55.81-1.33,1.44-2.35,1.88-1.02.44-2.23.66-3.64.66Z"/>
        <path class="cls-16" d="m223.44,219.67v-17.74h4.6l3.44,9.29c.11.34.24.76.4,1.26.16.5.31,1.02.48,1.57s.32,1.07.46,1.58c.14.5.26.93.36,1.28h-.75c.1-.34.21-.76.35-1.27.14-.5.29-1.03.45-1.58.16-.55.32-1.08.48-1.57.15-.5.29-.92.4-1.26l3.38-9.29h4.61v17.74h-3.12v-9.03c0-.39,0-.84.02-1.36s.03-1.07.04-1.65c.02-.58.03-1.17.04-1.76.01-.59.02-1.16.03-1.7h.36c-.18.6-.37,1.22-.56,1.84-.19.62-.38,1.22-.56,1.8-.18.58-.35,1.11-.51,1.6-.15.48-.29.89-.41,1.23l-3.36,9.03h-2.6l-3.38-9.03c-.12-.33-.26-.74-.42-1.22-.16-.48-.33-1.01-.52-1.59-.19-.58-.38-1.18-.57-1.8s-.39-1.24-.59-1.85h.44c0,.53.02,1.09.03,1.68.01.59.03,1.18.04,1.76.02.58.03,1.13.04,1.65.01.52.02.98.02,1.38v9.03h-3.12Z"/>
        <path class="cls-16" d="m245.16,219.67v-17.74h12.16v2.72h-8.99v4.7h8.32v2.67h-8.32v4.94h9v2.71h-12.17Z"/>
        <path class="cls-16" d="m265.46,219.67v-17.74h3.44l6.22,9.87c.19.29.42.67.68,1.14.27.46.55.97.84,1.51s.58,1.08.86,1.63l-.35.6c-.03-.53-.06-1.13-.09-1.8-.03-.67-.05-1.3-.06-1.91s-.02-1.09-.02-1.45v-9.59h3.17v17.74h-3.45l-5.6-8.88c-.23-.37-.5-.83-.82-1.36-.32-.53-.67-1.14-1.06-1.83-.39-.69-.81-1.45-1.26-2.27l.49-.36c.05.88.08,1.7.11,2.46.03.76.05,1.42.06,1.99.01.57.02,1.02.02,1.36v8.9h-3.18Z"/>
        <path class="cls-16" d="m283.23,219.67v-17.74h12.16v2.72h-8.99v4.7h8.32v2.67h-8.32v4.94h9v2.71h-12.17Z"/>
        <path class="cls-16" d="m297.87,219.67v-17.74h3.44l6.22,9.87c.19.29.42.67.68,1.14.27.46.55.97.84,1.51s.58,1.08.86,1.63l-.35.6c-.03-.53-.06-1.13-.09-1.8-.03-.67-.05-1.3-.06-1.91s-.02-1.09-.02-1.45v-9.59h3.17v17.74h-3.45l-5.6-8.88c-.23-.37-.5-.83-.82-1.36-.32-.53-.67-1.14-1.06-1.83-.39-.69-.81-1.45-1.26-2.27l.49-.36c.05.88.08,1.7.11,2.46.03.76.05,1.42.06,1.99.01.57.02,1.02.02,1.36v8.9h-3.18Z"/>
        <path class="cls-16" d="m314.36,219.67l6.3-17.74h3.98l6.31,17.74h-3.46l-3.12-9.3c-.31-.98-.63-2.03-.97-3.16-.34-1.13-.72-2.45-1.16-3.96h.83c-.43,1.52-.81,2.84-1.16,3.96-.34,1.13-.67,2.18-.99,3.16l-3.16,9.3h-3.41Zm3.73-4.28v-2.58h9.14v2.58h-9.14Z"/>
        <path class="cls-16" d="m338.87,219.95c-1.44,0-2.68-.24-3.72-.71-1.04-.47-1.85-1.15-2.41-2.04s-.85-1.95-.86-3.19h3.1c.02.69.18,1.28.51,1.77.32.49.77.86,1.35,1.12.58.26,1.26.39,2.05.39.74,0,1.38-.1,1.92-.32.54-.21.97-.51,1.27-.89.31-.39.46-.84.46-1.35,0-.43-.12-.8-.35-1.11s-.59-.58-1.07-.8c-.48-.23-1.1-.43-1.86-.6l-1.93-.45c-1.71-.4-2.98-.99-3.82-1.78-.84-.79-1.26-1.81-1.26-3.05,0-1.06.27-1.99.82-2.77.55-.79,1.31-1.4,2.29-1.84.98-.44,2.11-.66,3.4-.66s2.45.23,3.41.68c.96.45,1.71,1.09,2.24,1.92.54.83.82,1.81.85,2.94h-3.01c-.06-.9-.41-1.6-1.04-2.11s-1.45-.76-2.48-.76c-.65,0-1.23.11-1.73.32-.5.21-.9.5-1.18.86-.28.37-.42.79-.42,1.26,0,.42.12.78.36,1.08.24.3.59.55,1.07.76.47.21,1.06.4,1.77.57l1.76.42c.87.2,1.63.44,2.29.73.66.29,1.21.64,1.66,1.04.45.4.79.87,1.02,1.41.23.53.35,1.13.35,1.81,0,1.09-.27,2.04-.82,2.85-.55.81-1.33,1.44-2.35,1.88-1.02.44-2.23.66-3.64.66Zm-1.75-23.29l1.62,2.04,1.64-2.04h2.58v.04l-2.96,3.45h-2.54l-2.92-3.45v-.04h2.57Z"/>
        <path class="cls-16" d="m348.14,219.67v-17.74h3.17v15.03h8.13v2.71h-11.3Z"/>
        <path class="cls-16" d="m364.8,201.93v17.74h-3.17v-17.74h3.17Z"/>
      </g>
      <g>
        <path class="cls-8" d="m4.27,123.95s-2.96-1.83-3.7.61c-.75,2.43-.75,5.99,0,6.27.75.28,5.05,0,5.05,0,0,0,1.51-5.42-1.35-6.88Z"/>
        <g>
          <path class="cls-6" d="m77.43,125.39s-6.64-4.68-8.25,2.82c0,0,1.56,4.17,2.35,11.79,2.77.57,5.5,1.22,8.16,1.95,0-7.05-.55-13.5-2.26-16.56Z"/>
          <path class="cls-5" d="m81.93,171.51l-4.07-1.8s1.83-14.89,1.83-27.76c-2.67-.73-5.39-1.38-8.16-1.95.69,6.66.8,15.95-1.22,27.41,0,0-2.61,7.01.27,9.93,2.89,2.92,5.46,1.91,9.1,3.37,3.64,1.46,9.75,1.79,12.22-2.36,2.46-4.15-2.57-11.22-9.97-6.84Z"/>
        </g>
        <g>
          <path class="cls-6" d="m37.14,120.66s-6.64-4.91-8.25,2.96c0,0,2.02,5.7,2.63,15.98,2.59-.59,5.22-1.04,7.88-1.35,0-7.49-.54-14.36-2.26-17.6Z"/>
          <path class="cls-5" d="m41.64,169.09l-4.07-1.88s1.81-15.47,1.83-28.94c-2.66.31-5.3.76-7.88,1.35.39,6.6.19,15.09-1.5,25.17,0,0-2.61,7.36.27,10.43,2.89,3.06,5.46,2,9.1,3.53,3.64,1.53,9.75,1.88,12.22-2.47,2.46-4.36-2.57-11.78-9.97-7.19Z"/>
        </g>
        <path class="cls-6" d="m66.54,46.23c2.81-5.05,3.93-11.23,1.68-16.85-.17-.36-.35-.7-.55-1.01-11.32,3.92-28.1,14.37-36.42,42.21,14.16-3.65,27.04-10.95,35.29-24.35Z"/>
        <path class="cls-4" d="m83.66,21.62c0,.68.15,1.28.15,1.28,0,0-.04-.49-.15-1.28Z"/>
        <path class="cls-5" d="m88.36,30.28s6.54.53,5.73-2.24c-.8-2.78-3.38-2.02-3.38-2.02,0,0,6.75-5.39,2.73-7.74-4.02-2.36-6.59,4.97-6.59,4.97,0,0,.32-3.37-1.77-3.53-1.21-.1-1.45.99-1.44,1.92.11.79.15,1.28.15,1.28,0,0-.14-.6-.15-1.28-.47-3.42-2.17-12.49-7-11.6-5.95,1.09,2.81,13.97,2.81,13.97,0,0-1.77-1.43-2.41.08-.64,1.51,2.09,1.94,2.09,1.94,0,0-4.79.04-11.48,2.36.2.31.38.65.55,1.01,2.25,5.62,1.12,11.79-1.68,16.85-8.25,13.41-21.13,20.7-35.29,24.35-1.47,4.9-2.67,10.33-3.54,16.36,0,0-4.21,34.36-3.21,36.02,2.04,3.42,25.02,7.64,50.68,6.7,2.39-.09,4.49-1.69,5.31-4.04l12.25-31.72c4.08-10.56,6.37-21.8,6.58-33.19.22-12.2-1.84-25.6-10.95-30.43Z"/>
        <g>
          <path class="cls-6" d="m45.09,72.29c-1.01-1.99-3.28-3.68-8.3-2.95-7.09,1.04-12.86,10.77-15.93,17.17,9.43-2.9,18.12-7.42,24.23-14.22Z"/>
          <path class="cls-5" d="m23.3,92.83c3.94-6.89,11.76-12.05,20.44-12.09.7-.63,1.47-1.71,2-3.59,0,0,.48-2.63-.65-4.87-6.11,6.8-14.8,11.32-24.23,14.22-1.55,3.23-2.41,5.61-2.41,5.61,0,0-3.84-.45-4.69,4.47,0,0-.43,2.46,1.07,3.35,0,0-14.72,21.44-11.52,29.93,0,0-.57,2.61,1.92,3.5,0,0,1.63,3.57,4.05,2.31,0,0-1.99,4.91.57,5.88,2.56.97,5.4.6,6.4-3.57.25-1.06.77-4.67,1.72-9.61-2.25-11.93-1.4-24.43,5.35-35.53Z"/>
          <path class="cls-6" d="m23.3,92.83c-6.74,11.1-7.6,23.6-5.35,35.53,2.79-14.49,9.31-40.41,23.95-46.74,0,0,.86,0,1.84-.88-8.68.04-16.5,5.2-20.44,12.09Z"/>
        </g>
        <path class="cls-6" d="m30.73,72.36s8.91-6.93,14.36-.07c0,0-3.64-4.76-14.36.07Z"/>
        <path class="cls-14" d="m76.66,10.02s5.6-2.35,7.08,12.47c0,0-.93-3.14,1.36-2.79,2.29.35,1.77,3.53,1.77,3.53,0,0,1.58-6.8,6.11-5.21,4.52,1.6-.81,6.93-2.25,7.98,0,0,3.12-.55,3.44,2.36,0,0-1.75-2.85-4.25-1.58,0,0,5.64-6.81,2.53-7.44-3.12-.63-5.72,5.33-5.72,5.33,0,0-.45-4.09-1.79-3.51-1.34.58-1.12,3.4-1.12,3.4,0,0-2.61-14.01-7.15-14.55Z"/>
        <path class="cls-8" d="m21.89,129.8c-2.7-3.18-6.67-2.9-6.67-2.9-1.54,4.31-1.26,7.91-1.26,7.91,0,0-15.3,28.64-7.44,24.43,5.99-3.21,12.77-.95,15.65.3.45.2.93.06,1.24-.26-5.18-9.24-6.67-20.28-1.52-29.48Z"/>
        <path class="cls-9" d="m24.34,137.75c-.05-3.86-1.09-6.35-2.45-7.96-5.15,9.2-3.66,20.23,1.52,29.48.17-.18.28-.41.3-.68.24-3.46.75-11.98.64-20.84Z"/>
        <path class="cls-10" d="m71.92,60.24c-.77,1.85-.85,3.58-.18,3.88.68.3,1.85-.96,2.62-2.81.77-1.85.85-3.58.18-3.88-.67-.29-1.85.96-2.62,2.81"/>
        <path class="cls-10" d="m87.35,63.96c-.63,1.9-.58,3.64.11,3.88.7.24,1.77-1.1,2.4-3,.63-1.9.58-3.64-.12-3.88-.7-.24-1.77,1.1-2.4,3"/>
        <path class="cls-10" d="m83.91,52.73c-.63,1.9-.58,3.64.11,3.88.7.24,1.77-1.1,2.4-3,.63-1.9.58-3.64-.12-3.88-.7-.24-1.77,1.1-2.4,3"/>
        <g>
          <path class="cls-10" d="m78.81,80.03c-1.77-1.59-4.09-2.44-6.46-2.26-.04,0-.07,0-.11,0-3.74.31-4.9-5.39.07-6.56,4.97-1.17,10.77,1.52,12.23,5.54,1.28,3.52-2.3,6.36-5.74,3.27Z"/>
          <g class="cls-12">
            <path class="cls-7" d="m82.43,81.48c-.67,1.71-3.94,2.03-7.31.71-3.37-1.32-5.56-3.77-4.89-5.48.67-1.71,3.94-2.03,7.31-.71,3.37,1.32,5.56,3.77,4.89,5.48Z"/>
          </g>
        </g>
        <path class="cls-5" d="m103.07,92.31c3.91-16.38-7.08-23.14-7.08-23.14l-1.19,3.42-5.27,15.2c-1.84,10.84-8.37,5.16-8.37,5.16-.53-1.67-1.17,0-1.17,0v-10.89c0-4.3-1.07-6.09-3.09-4.97-2.03,1.12-1.39,9.94-1.39,9.94-1.44-2.18-2.61.06-2.61.06,0,0-.43-.95-1.44-.84-1.01.11-1.07,1.23-1.07,1.23-.32-.56-1.71-2.35-2.99,0-1.28,2.34,2.24,15.07,8.01,18.87,1.14.75,2.76,1.31,4.64,1.59,9.5-2.14,18.03-7.23,23.01-15.63Z"/>
        <path class="cls-6" d="m80.06,107.94c5.98.9,14.68-.96,19.73-8.17,1.4-2,2.53-4.39,3.23-7.27.02-.07.03-.13.04-.2-4.98,8.4-13.5,13.5-23.01,15.63Z"/>
        <path class="cls-6" d="m90.89,95.08s-5.69,1.9-10.9-2.13c0,0,1.88-16.24-2.13-16.17,0,0-3.46-.77-2.38,9.62,0,0-1.62-1.04-2.58.7,0,0-1.73-1.99-2.48.22,0,0-2.45-2.24-3.27.56,0,0-3.13,16.46,14.52,20.28,0,0-14.63-3.54-14.07-19.9,0,0,.14-.98,1.19-1.04,1.05-.05,1.65,1.18,1.65,1.18,0,0,.35-1.61,1.16-1.42.81.19,1.37,1.32,1.37,1.32,0,0,.28-1.82,1.49-1.53,1.21.3,1.25,1.7,1.25,1.7,0,0-.63-11.69,2.04-11.27,2.67.42,1.86,16.63,1.86,16.63,0,0,6.11,5.1,11.3,1.24Z"/>
        <path class="cls-6" d="m98.38,72.29s-2.08,12.12-7,22.79c0,0,6.84-10.91,7-22.79Z"/>
        <path class="cls-1" d="m23.72,159.03c0,3.52-4.36,6.38-9.73,6.38s-9.73-2.86-9.73-6.38,4.36-6.38,9.73-6.38,9.73,2.86,9.73,6.38Z"/>
        <path class="cls-11" d="m12.26,159.27v13.2l3.02-12.76c.11-.46-.1-.94-.53-1.16-.4-.21-.96-.4-1.59-.31-.52.07-.9.52-.9,1.04Z"/>
        <path class="cls-11" d="m14.93,170.53c0,1.36-1.1,2.46-2.46,2.46s-2.46-1.1-2.46-2.46,1.1-2.46,2.46-2.46,2.46,1.1,2.46,2.46Z"/>
      </g>
      <g>
        <path class="cls-5" d="m338.1,54.25c-2.64-1.97-5.84-3.55-9.69-4.2-7.84-1.33-13.19,1.31-16.49,4.09,8.72.82,17.47.97,26.17.12Z"/>
        <path class="cls-6" d="m338.1,54.25c-8.7.86-17.46.7-26.17-.12-2.92,2.46-4.23,5.01-4.23,5.01,0,0-7.06,4.88-6.78,7.01.28,2.14,1.58,1.39,1.58,1.39,0,2.09,1.11,1.67,1.11,1.67,0,0-1.62,8.22.6,8.31,2.23.09,3.88-6.63,3.88-6.63,0,0-.09,1.67,2.6,1.17,2.68-.51,2.4-6.61,2.4-6.61,2.79-7.9,10.96-6.92,10.96-6.92,7.64.67,13.39,7.56,17.46,15.15,1.51-4.35,2.46-8.87,2.51-13.37-1.52-2.09-3.48-4.25-5.92-6.07Z"/>
        <path class="cls-5" d="m348.47,68.62s-1.32-3.99-4.46-8.3c-.04,4.5-1,9.03-2.51,13.37,5.28,9.85,7.72,20.85,7.72,20.85,1.3-15.98-.74-25.92-.74-25.92Z"/>
        <path class="cls-5" d="m407.01,67.23s-3.16,8.12.74,17.97c0,0,1.27.16,3,1.02.87-5.35,2.23-10.61,4.01-15.77-2.23-1.37-4.79-2.47-7.75-3.21Z"/>
        <path class="cls-5" d="m417.88,72.73c2.04,11.3,5.34,22.93,10.83,33.35.42-10.57-1.09-25.03-10.83-33.35Z"/>
        <path class="cls-6" d="m417.88,72.73c-.96-.82-2-1.59-3.13-2.28-1.78,5.16-3.14,10.42-4.01,15.77,4.73,2.34,12.91,9.87,8.15,33.54,0,0-4.86,3.72-4.85,6.64,0,2.93,1.6,3.69,1.6,3.69,0,0-1.25,2.93,1.25,2.93s4.6.56,5.29.91c.7.35,2.51-.49,3.48,0,.98.49,3.27.49,4.11-.28.84-.77.28-11.36-2.65-14.56,0,0,1.27-5.52,1.57-13-5.49-10.42-8.79-22.05-10.83-33.35Z"/>
        <g>
          <g>
            <path class="cls-6" d="m365.31,165.77s-1.19-1.97-2.33-.73c0,0-8.37-5.44-12.35,3.61-3.98,9.06,13.86,9.47,18.25,5.21,4.39-4.25,5.76-4.39,5.76-4.39,0,0,1.78-2.88,0-4.12-1.32-.91-4.9-14.39-5.66-28.79-2.47.26-4.93.62-7.36,1.09l3.69,28.11Z"/>
            <path class="cls-5" d="m369.43,121.58s-8.1-7.14-10.29-2.88l2.49,18.97c2.43-.48,4.88-.83,7.36-1.09-.27-5.05-.19-10.21.45-14.99Z"/>
          </g>
          <g>
            <path class="cls-6" d="m396.4,161.62s1.19-1.97,2.33-.73c0,0,8.37-5.44,12.35,3.61,3.98,9.06-13.86,9.47-18.25,5.21-4.39-4.25-5.76-4.39-5.76-4.39,0,0-1.78-2.88,0-4.12,1.32-.91,4.9-14.39,5.66-28.79,2.47.26,4.93.62,7.36,1.1l-3.69,28.1Z"/>
            <path class="cls-5" d="m392.29,117.43s8.1-7.14,10.29-2.88l-2.49,18.97c-2.43-.48-4.88-.83-7.36-1.1.27-5.05.19-10.21-.45-14.99Z"/>
          </g>
          <path class="cls-4" d="m369.95,17.94c.11.27.22.43.22.43,0,0-.07-.15-.22-.43Z"/>
          <path class="cls-5" d="m402.35,56.76c2.18,1.34,4.41,2.54,6.68,3.62-1.86-13.96-6.1-27.22-14.78-35.02-1.63-1.47-3.42-2.73-5.38-3.78-4.25,11.9,2.73,28.73,13.48,35.18Z"/>
          <path class="cls-6" d="m402.35,56.76c-10.76-6.45-17.73-23.29-13.48-35.18-1.54-.83-3.18-1.52-4.94-2.06,0,0,13.68-13.08,5.72-18.57-7.96-5.49-12.9,16.06-12.9,16.06,0,0-2.47-5.49-5.35-3.29-2.15,1.64-1.78,3.43-1.45,4.24.14.28.22.43.22.43,0,0-.11-.16-.22-.43-1.38-2.69-9.11-17-15.7-13.02-7.27,4.39,10.02,17.43,10.02,17.43,0,0-4.34,3.14-8.79,11.2-7.14,12.95-14.55,38.62-4.61,84.37,11.49,2.5,23.63,2.4,35.78-.3,9.79-2.18,17.43-8.34,22.67-16.33.98-10.71,1.67-26.2-.28-40.91-2.27-1.08-4.5-2.28-6.68-3.62Z"/>
          <path class="cls-5" d="m386.64,117.62c-12.15,2.7-24.29,2.8-35.78.3.33,1.52.68,3.05,1.04,4.61,0,0,7.96,1.65,28.96,0,21-1.65,26.76-7.55,26.76-7.55,0,0,.93-5.42,1.69-13.7-5.24,7.99-12.88,14.16-22.67,16.33Z"/>
          <path class="cls-10" d="m375.87,44.47c.07,1.72.64,3.1,1.27,3.08.63-.02,1.09-1.42,1.02-3.14-.07-1.72-.64-3.1-1.27-3.08-.63.02-1.09,1.42-1.02,3.14"/>
          <path class="cls-10" d="m366.79,56.41c.07,1.72.64,3.1,1.27,3.08.63-.02,1.09-1.42,1.02-3.14-.07-1.72-.64-3.1-1.27-3.08-.63.02-1.09,1.42-1.02,3.14"/>
          <path class="cls-10" d="m386.56,53.28c-.63.02-1.09,1.42-1.02,3.14.07,1.72.64,3.1,1.27,3.08.63-.02,1.09-1.42,1.02-3.14-.07-1.72-.63-3.1-1.27-3.08Z"/>
          <g>
            <path class="cls-2" d="m369.43,68.49s7.33-5.06,17.26-1.08c0,0-9.41-5.78-17.26,1.08Z"/>
            <path class="cls-2" d="m367.93,67.2s2.28.2,2.12,3.17c0,0-.38-2.05-2.12-3.17Z"/>
            <path class="cls-2" d="m386.28,69.58s.38-2.05,2.12-3.17c0,0-2.28.2-2.12,3.17Z"/>
            <path class="cls-2" d="m374.75,69.58s3.21-1.28,6.83,0c0,0-3.46-2.32-6.83,0Z"/>
          </g>
          <path class="cls-5" d="m354.24,4.92s7.03-5.64,15.92,13.45c0,0-7.1-13.32-15.92-13.45Z"/>
          <path class="cls-5" d="m391.17,9.63c1.85-3.38,1.32-10.62-4.77-9.52-6.08,1.1-9.66,16.89-9.66,16.89-2.48-4.52-4.21-4.7-6.07-2.64-1.87,2.05-.51,4.02-.51,4.02-.03-2.58,1.9-3.33,1.9-3.33,3.75-.33,5.12,6.33,5.12,6.33,0,0,3.98-18.32,9.34-19.59,5.36-1.27,4.65,7.85,4.65,7.85Z"/>
        </g>
      </g>
    </g>
  </g>
</svg>